<?xml version="1.0" encoding="UTF-8"?>
<svg width="206px" height="56px" viewBox="0 0 206 56" version="1.1" xmlns="http://www.w3.org/2000/svg" xmlns:xlink="http://www.w3.org/1999/xlink">
    <!-- Generator: Sketch 51.1 (57501) - http://www.bohemiancoding.com/sketch -->
    <title>logo</title>
    <desc>Created with Sketch.</desc>
    <defs></defs>
    <g id="try" stroke="none" stroke-width="1" fill="none" fill-rule="evenodd">
        <g id="homepage_UI-32" transform="translate(-182.000000, -64.000000)">
            <g id="logo" transform="translate(182.000000, 64.000000)">
                <g id="ic_logo">
                    <path d="M48.0581818,55.9790634 L7.84,55.9790634 C3.52290909,55.9790634 0,52.4523416 0,48.0898072 L0,7.86887052 C0,3.52672176 3.52290909,0 7.84,0 L48.0581818,0 C52.3956364,0 55.8981818,3.52672176 55.8981818,7.86887052 L55.8981818,48.0898072 C55.9185455,52.4523416 52.3956364,55.9790634 48.0581818,55.9790634 Z M7.84,0.611570248 C3.84872727,0.611570248 0.610909091,3.87327824 0.610909091,7.86887052 L0.610909091,48.0898072 C0.610909091,52.1057851 3.86909091,55.3674931 7.86036364,55.3674931 L48.0581818,55.3674931 C52.0494545,55.3674931 55.3076364,52.1057851 55.3076364,48.0898072 L55.3076364,7.86887052 C55.3076364,3.87327824 52.0698182,0.611570248 48.0581818,0.611570248 L7.84,0.611570248 Z" id="Shape" fill="#ED1D24" fill-rule="nonzero"></path>
                    <path d="M7.84,0.611570248 C3.84872727,0.611570248 0.610909091,3.87327824 0.610909091,7.86887052 L0.610909091,48.0898072 C0.610909091,52.1057851 3.86909091,55.3674931 7.86036364,55.3674931 L48.0581818,55.3674931 C52.0494545,55.3674931 55.3076364,52.1057851 55.3076364,48.0898072 L55.3076364,7.86887052 C55.3076364,3.87327824 52.0698182,0.611570248 48.0581818,0.611570248 L7.84,0.611570248 Z" id="Path" fill="#FFFFFF"></path>
                    <path d="M44.4741818,49.1498623 L11.4443636,49.1498623 C8.96,49.1498623 6.944,47.1112948 6.944,44.6242424 L6.944,11.3548209 C6.944,8.8677686 8.96,6.8292011 11.4443636,6.8292011 L44.4945455,6.8292011 C46.9789091,6.8292011 48.9949091,8.8677686 48.9949091,11.3548209 L48.9949091,44.6446281 C48.9949091,47.1316804 46.9585455,49.1498623 44.4741818,49.1498623 Z M11.4443636,7.42038567 C9.28581818,7.42038567 7.53454545,9.19393939 7.53454545,11.3548209 L7.53454545,44.6446281 C7.53454545,46.8055096 9.28581818,48.5586777 11.4443636,48.5586777 L44.4945455,48.5586777 C46.6530909,48.5586777 48.4043636,46.8055096 48.4043636,44.6446281 L48.4043636,11.3548209 C48.4043636,9.19393939 46.6530909,7.44077135 44.4945455,7.44077135 L11.4443636,7.44077135 L11.4443636,7.42038567 Z" id="Shape" fill="#ED1D24" fill-rule="nonzero"></path>
                    <path d="M4.13381818,50.2099174 C4.13381818,49.5168044 4.68363636,48.9663912 5.376,48.9663912 C6.06836364,48.9663912 6.61818182,49.5168044 6.61818182,50.2099174 C6.61818182,50.9030303 6.06836364,51.4534435 5.376,51.4534435 C4.68363636,51.4534435 4.13381818,50.9030303 4.13381818,50.2099174" id="Shape" fill="#ED1D24" fill-rule="nonzero"></path>
                    <path d="M49.3003636,49.8429752 C49.3003636,49.1498623 49.8501818,48.599449 50.5425455,48.599449 C51.2349091,48.599449 51.7847273,49.1498623 51.7847273,49.8429752 C51.7847273,50.5360882 51.2349091,51.0865014 50.5425455,51.0865014 C49.8501818,51.0865014 49.3003636,50.5157025 49.3003636,49.8429752" id="Shape" fill="#ED1D24" fill-rule="nonzero"></path>
                    <path d="M27.776,35.8610335 L27.776,29.8853994 L21.1578182,29.9057851 C20.9134545,29.8650138 20.2618182,29.2330579 16.3316364,25.4209366 L11.9534545,24.2589532 L10.9352727,19.7129477 L15.3541818,21.0991736 L16.6574545,24.9112948 C18.3883636,26.5829201 20.7912727,28.8865014 21.2596364,29.2942149 L27.776,29.2738292 L27.776,19.1013774 L25.5767273,15.9823691 L27.8981818,11.7625344 L30.3621818,15.8396694 L28.3461818,18.9790634 L28.3665455,18.9790634 L28.3665455,27.031405 L34.9643636,27.031405 L39.3425455,22.4446281 L40.0552727,18.3063361 L44.7592727,17.3278237 L43.7818182,21.9146006 L39.8923636,22.7504132 L35.2087273,27.6429752 L28.3665455,27.6429752 L28.3665455,35.8869082 C28.42922,35.8908824 28.4801031,35.895028 28.5090909,35.8991736 C28.6923636,36.0214876 28.9163636,36.4292011 29.12,36.877686 L34.5978182,36.877686 L28.0203636,43.4214876 L21.4225455,36.877686 L27.1243636,36.877686 C27.2669091,36.3476584 27.4501818,35.9603306 27.6945455,35.8584022 C27.6945455,35.8584022 27.7256934,35.8593471 27.776,35.8610335 Z M27.6334545,37.4280992 C27.6334545,38.1008264 27.8167273,38.630854 28.0610909,38.630854 C28.2850909,38.630854 28.4887273,38.1008264 28.4887273,37.4280992 C28.4887273,36.7757576 28.3054545,36.2253444 28.0610909,36.2253444 C27.8370909,36.2253444 27.6334545,36.7553719 27.6334545,37.4280992 Z M17.6756364,43.7680441 L10.0596364,35.5730028 L10.5076364,35.1652893 L18.1236364,43.3603306 L17.6756364,43.7680441 Z M30.5250909,43.6253444 L30.0974545,43.1972452 L35.4734545,37.7950413 L35.9010909,38.2231405 L30.5250909,43.6253444 Z M22.5221818,43.5641873 L18.1236364,39.1608815 L18.5512727,38.7327824 L22.9498182,43.1360882 L22.5221818,43.5641873 Z M19.9767273,43.5438017 L16.6981818,40.2413223 L17.1258182,39.8132231 L20.4043636,43.0953168 L19.9767273,43.5438017 Z M24.8029091,43.523416 L19.5898182,38.2027548 L20.0174545,37.7746556 L25.2305455,43.0953168 L24.8029091,43.523416 Z M35.7585455,43.2991736 L35.3309091,42.8710744 L38.2836364,39.9151515 L38.7112727,40.3432507 L35.7585455,43.2991736 Z M33.4574545,43.2584022 L33.0298182,42.830303 L37.1432727,38.7123967 L37.5709091,39.1404959 L33.4574545,43.2584022 Z M38.2021818,43.2380165 L37.7745455,42.8099174 L45.3294545,34.9614325 L45.7570909,35.3895317 L38.2021818,43.2380165 Z M26.2487273,35.246832 L19.0196364,35.246832 L18.9381818,35.1652893 L10.3854545,27.031405 L10.7927273,26.5829201 L19.2436364,34.6352617 L26.2487273,34.6352617 L26.2487273,35.246832 Z M36.5323636,35.0633609 L29.6698182,35.0633609 L29.6698182,34.4517906 L36.288,34.4517906 L45.4109091,24.9928375 L45.8385455,25.4209366 L36.5323636,35.0633609 Z M12.4625455,23.769697 L15.9447273,24.6870523 L14.8858182,21.5884298 L11.7498182,20.6099174 L12.4625455,23.769697 Z M40.5847273,18.815978 L40.0145455,22.1184573 L43.2930909,21.4049587 L43.9854545,18.1024793 L40.5847273,18.815978 Z M26.2894545,15.9415978 L28.0203636,18.4082645 L29.6494545,15.8396694 L27.9185455,12.9652893 L26.2894545,15.9415978 Z" id="Combined-Shape" fill="#ED1D24" fill-rule="nonzero"></path>
                    <polygon id="Shape" fill="#ED1D24" fill-rule="nonzero" points="9.79490909 5.34104683 9.79490909 2.60936639 9.00072727 2.60936639 9.00072727 2.05895317 11.1592727 2.05895317 11.1592727 2.60936639 10.3447273 2.60936639 10.3447273 5.34104683"></polygon>
                    <path d="M12.0552727,3.44517906 L12.4625455,3.44517906 C12.7069091,3.44517906 12.8698182,3.42479339 12.9309091,3.40440771 C12.992,3.38402204 13.0530909,3.34325069 13.0938182,3.28209366 C13.1345455,3.22093664 13.1549091,3.11900826 13.1549091,3.01707989 C13.1549091,2.91515152 13.1345455,2.83360882 13.0938182,2.77245179 C13.0530909,2.71129477 12.992,2.67052342 12.9309091,2.65013774 C12.8698182,2.62975207 12.7272727,2.62975207 12.4829091,2.62975207 L12.0552727,2.62975207 L12.0552727,3.44517906 L12.0552727,3.44517906 Z M11.5054545,5.34104683 L11.5054545,2.05895317 L12.6661818,2.05895317 C12.9512727,2.05895317 13.1752727,2.07933884 13.2974545,2.14049587 C13.4196364,2.20165289 13.5214545,2.30358127 13.6029091,2.44628099 C13.6843636,2.58898072 13.7250909,2.77245179 13.7250909,2.97630854 C13.7250909,3.24132231 13.664,3.44517906 13.5418182,3.58787879 C13.4196364,3.75096419 13.2363636,3.85289256 13.0123636,3.87327824 C13.1345455,3.95482094 13.2363636,4.05674931 13.2974545,4.13829201 C13.3789091,4.24022039 13.4807273,4.42369146 13.6029091,4.66831956 L13.9287273,5.30027548 L13.2770909,5.30027548 L12.8698182,4.58677686 C12.7272727,4.32176309 12.6254545,4.15867769 12.5847273,4.09752066 C12.5236364,4.03636364 12.4829091,3.99559229 12.4218182,3.95482094 C12.3607273,3.93443526 12.2792727,3.91404959 12.1367273,3.91404959 L12.0145455,3.91404959 L12.0145455,5.27988981 L11.5054545,5.27988981 L11.5054545,5.34104683 Z" id="Shape" fill="#ED1D24"></path>
                    <path d="M14.2341818,2.05895317 L14.784,2.05895317 L14.784,3.83250689 C14.784,4.11790634 14.784,4.28099174 14.8043636,4.36253444 C14.8247273,4.50523416 14.8858182,4.62754821 14.9876364,4.68870523 C15.0894545,4.77024793 15.1912727,4.81101928 15.3541818,4.81101928 C15.4763636,4.81101928 15.5781818,4.79063361 15.6596364,4.72947658 C15.7410909,4.66831956 15.8021818,4.58677686 15.8225455,4.50523416 C15.8632727,4.40330579 15.8632727,4.19944904 15.8632727,3.87327824 L15.8632727,2.05895317 L16.4130909,2.05895317 L16.4130909,3.77134986 C16.4130909,4.21983471 16.3927273,4.52561983 16.3316364,4.72947658 C16.2909091,4.93333333 16.1687273,5.07603306 16.0058182,5.19834711 C15.8429091,5.32066116 15.6189091,5.38181818 15.3541818,5.38181818 C15.0690909,5.38181818 14.8450909,5.32066116 14.6821818,5.23911846 C14.5192727,5.13719008 14.4174545,4.99449036 14.336,4.81101928 C14.2545455,4.62754821 14.2341818,4.30137741 14.2341818,3.81212121 L14.2341818,2.05895317 Z" id="Shape" fill="#ED1D24" fill-rule="nonzero"></path>
                    <path d="M16.8407273,4.28099174 L17.3701818,4.21983471 C17.4312727,4.64793388 17.6349091,4.85179063 17.9607273,4.85179063 C18.1236364,4.85179063 18.2661818,4.81101928 18.3476364,4.72947658 C18.4494545,4.64793388 18.4901818,4.54600551 18.4901818,4.40330579 C18.4901818,4.32176309 18.4698182,4.26060606 18.4494545,4.21983471 C18.4087273,4.15867769 18.368,4.11790634 18.2865455,4.09752066 C18.2254545,4.05674931 18.0625455,4.01597796 17.7978182,3.93443526 C17.5738182,3.87327824 17.3905455,3.79173554 17.2887273,3.71019284 C17.1869091,3.62865014 17.0850909,3.52672176 17.024,3.38402204 C16.9629091,3.24132231 16.9221818,3.09862259 16.9221818,2.95592287 C16.9221818,2.77245179 16.9629091,2.60936639 17.0443636,2.46666667 C17.1258182,2.32396694 17.248,2.22203857 17.3905455,2.14049587 C17.5330909,2.03856749 17.7163636,2.01818182 17.92,2.01818182 C18.2458182,2.01818182 18.4901818,2.09972452 18.6734545,2.28319559 C18.8567273,2.44628099 18.9381818,2.69090909 18.9585455,3.01707989 L18.4087273,3.03746556 C18.3883636,2.85399449 18.3272727,2.73168044 18.2458182,2.67052342 C18.1643636,2.60936639 18.0421818,2.56859504 17.8996364,2.56859504 C17.7570909,2.56859504 17.6349091,2.60936639 17.5534545,2.65013774 C17.472,2.71129477 17.4312727,2.79283747 17.4312727,2.87438017 C17.4312727,2.95592287 17.472,3.03746556 17.5330909,3.09862259 C17.6145455,3.15977961 17.7774545,3.22093664 18.0421818,3.30247934 C18.3069091,3.38402204 18.5105455,3.46556474 18.6327273,3.54710744 C18.7549091,3.62865014 18.8567273,3.75096419 18.9178182,3.89366391 C18.9789091,4.03636364 19.0196364,4.19944904 19.0196364,4.40330579 C19.0196364,4.68870523 18.9381818,4.93333333 18.7549091,5.11680441 C18.5716364,5.30027548 18.3069091,5.40220386 17.92,5.40220386 C17.2683636,5.40220386 16.9018182,5.01487603 16.8407273,4.28099174" id="Shape" fill="#ED1D24" fill-rule="nonzero"></path>
                    <polygon id="Shape" fill="#ED1D24" fill-rule="nonzero" points="20.0989091 5.34104683 20.0989091 2.60936639 19.3047273 2.60936639 19.3047273 2.05895317 21.4632727 2.05895317 21.4632727 2.60936639 20.6487273 2.60936639 20.6487273 5.34104683"></polygon>
                    <polygon id="Shape" fill="#ED1D24" fill-rule="nonzero" points="22.8683636 5.34104683 22.8683636 2.05895317 24.7214545 2.05895317 24.7214545 2.60936639 23.4181818 2.60936639 23.4181818 3.40440771 24.5381818 3.40440771 24.5381818 3.95482094 23.4181818 3.95482094 23.4181818 5.34104683"></polygon>
                    <path d="M25.6174545,3.71019284 C25.6174545,4.07713499 25.6989091,4.36253444 25.8414545,4.54600551 C25.984,4.72947658 26.1672727,4.83140496 26.3709091,4.83140496 C26.5949091,4.83140496 26.7578182,4.72947658 26.9003636,4.54600551 C27.0429091,4.36253444 27.104,4.07713499 27.104,3.68980716 C27.104,3.30247934 27.0429091,3.03746556 26.9003636,2.85399449 C26.7578182,2.67052342 26.5745455,2.58898072 26.3505455,2.58898072 C26.1265455,2.58898072 25.9432727,2.67052342 25.8007273,2.85399449 C25.6989091,3.03746556 25.6174545,3.32286501 25.6174545,3.71019284 M25.0676364,3.73057851 C25.0676364,3.34325069 25.1287273,3.01707989 25.2509091,2.77245179 C25.3730909,2.52782369 25.5156364,2.32396694 25.6989091,2.20165289 C25.8821818,2.07933884 26.1061818,2.01818182 26.3912727,2.01818182 C26.7781818,2.01818182 27.104,2.16088154 27.3483636,2.46666667 C27.5927273,2.75206612 27.7149091,3.18016529 27.7149091,3.71019284 C27.7149091,4.26060606 27.5927273,4.68870523 27.328,4.99449036 C27.104,5.25950413 26.7985455,5.40220386 26.4116364,5.40220386 C26.0247273,5.40220386 25.7192727,5.25950413 25.4749091,4.99449036 C25.1898182,4.68870523 25.0676364,4.26060606 25.0676364,3.73057851" id="Shape" fill="#ED1D24"></path>
                    <path d="M28.672,3.44517906 L29.0792727,3.44517906 C29.3236364,3.44517906 29.4865455,3.42479339 29.5476364,3.40440771 C29.6087273,3.38402204 29.6698182,3.34325069 29.7105455,3.28209366 C29.7512727,3.22093664 29.7716364,3.11900826 29.7716364,3.01707989 C29.7716364,2.91515152 29.7512727,2.83360882 29.7105455,2.77245179 C29.6698182,2.71129477 29.6087273,2.67052342 29.5476364,2.65013774 C29.4865455,2.62975207 29.344,2.62975207 29.0996364,2.62975207 L28.672,2.62975207 L28.672,3.44517906 L28.672,3.44517906 Z M28.1221818,5.34104683 L28.1221818,2.05895317 L29.2829091,2.05895317 C29.568,2.05895317 29.792,2.07933884 29.9141818,2.14049587 C30.0363636,2.20165289 30.1381818,2.30358127 30.2196364,2.44628099 C30.3010909,2.58898072 30.3418182,2.77245179 30.3418182,2.97630854 C30.3418182,3.24132231 30.2807273,3.44517906 30.1585455,3.58787879 C30.0363636,3.75096419 29.8530909,3.85289256 29.6290909,3.87327824 C29.7512727,3.95482094 29.8530909,4.05674931 29.9141818,4.13829201 C29.9956364,4.24022039 30.0974545,4.42369146 30.24,4.66831956 L30.5658182,5.30027548 L29.9141818,5.30027548 L29.5069091,4.58677686 C29.3643636,4.32176309 29.2625455,4.15867769 29.2218182,4.09752066 C29.1810909,4.03636364 29.12,3.99559229 29.0589091,3.95482094 C28.9978182,3.93443526 28.9163636,3.91404959 28.7738182,3.91404959 L28.6516364,3.91404959 L28.6516364,5.27988981 L28.1221818,5.27988981 L28.1221818,5.34104683 Z" id="Shape" fill="#ED1D24"></path>
                    <polygon id="Shape" fill="#ED1D24" fill-rule="nonzero" points="31.9098182 5.34104683 31.9098182 2.05895317 32.4392727 2.05895317 33.5592727 4.26060606 33.5592727 2.05895317 34.0683636 2.05895317 34.0683636 5.34104683 33.5185455 5.34104683 32.4189091 3.20055096 32.4189091 5.34104683"></polygon>
                    <path d="M36.0843636,4.03636364 L35.7178182,2.81322314 L35.3512727,4.03636364 L36.0843636,4.03636364 Z M37.0821818,5.34104683 L36.4916364,5.34104683 L36.2676364,4.60716253 L35.168,4.60716253 L34.944,5.34104683 L34.3534545,5.34104683 L35.4123636,2.05895317 L36.0029091,2.05895317 L37.0821818,5.34104683 Z" id="Shape" fill="#ED1D24"></path>
                    <polygon id="Shape" fill="#ED1D24" fill-rule="nonzero" points="37.7338182 5.34104683 37.7338182 2.60936639 36.9396364 2.60936639 36.9396364 2.05895317 39.0778182 2.05895317 39.0778182 2.60936639 38.2836364 2.60936639 38.2836364 5.34104683"></polygon>
                    <path d="M39.424,2.05895317 L39.9738182,2.05895317 L39.9738182,3.83250689 C39.9738182,4.11790634 39.9738182,4.28099174 39.9941818,4.36253444 C40.0145455,4.50523416 40.0756364,4.62754821 40.1774545,4.68870523 C40.2792727,4.77024793 40.3810909,4.81101928 40.544,4.81101928 C40.6661818,4.81101928 40.768,4.79063361 40.8494545,4.72947658 C40.9309091,4.66831956 40.992,4.58677686 41.0123636,4.50523416 C41.0530909,4.40330579 41.0530909,4.19944904 41.0530909,3.87327824 L41.0530909,2.05895317 L41.6029091,2.05895317 L41.6029091,3.77134986 C41.6029091,4.21983471 41.5825455,4.52561983 41.5214545,4.72947658 C41.4807273,4.93333333 41.3585455,5.07603306 41.1956364,5.19834711 C41.0327273,5.32066116 40.8087273,5.38181818 40.544,5.38181818 C40.2589091,5.38181818 40.0349091,5.32066116 39.872,5.23911846 C39.7090909,5.13719008 39.6072727,4.99449036 39.5258182,4.81101928 C39.4443636,4.62754821 39.424,4.30137741 39.424,3.81212121 L39.424,2.05895317 Z" id="Shape" fill="#ED1D24" fill-rule="nonzero"></path>
                    <path d="M42.7229091,3.44517906 L43.1301818,3.44517906 C43.3745455,3.44517906 43.5374545,3.42479339 43.5985455,3.40440771 C43.6596364,3.38402204 43.7207273,3.34325069 43.7614545,3.28209366 C43.8021818,3.22093664 43.8225455,3.11900826 43.8225455,3.01707989 C43.8225455,2.91515152 43.8021818,2.83360882 43.7614545,2.77245179 C43.7207273,2.71129477 43.6596364,2.67052342 43.5985455,2.65013774 C43.5374545,2.62975207 43.3949091,2.62975207 43.1505455,2.62975207 L42.7229091,2.62975207 L42.7229091,3.44517906 L42.7229091,3.44517906 Z M42.1730909,5.34104683 L42.1730909,2.05895317 L43.3338182,2.05895317 C43.6189091,2.05895317 43.8429091,2.07933884 43.9650909,2.14049587 C44.0872727,2.20165289 44.1890909,2.30358127 44.2705455,2.44628099 C44.352,2.58898072 44.3927273,2.77245179 44.3927273,2.97630854 C44.3927273,3.24132231 44.3316364,3.44517906 44.2094545,3.58787879 C44.0872727,3.75096419 43.904,3.85289256 43.68,3.87327824 C43.8021818,3.95482094 43.904,4.05674931 43.9650909,4.13829201 C44.0465455,4.24022039 44.1483636,4.42369146 44.2705455,4.66831956 L44.5963636,5.30027548 L43.9447273,5.30027548 L43.5374545,4.58677686 C43.3949091,4.32176309 43.2930909,4.15867769 43.2523636,4.09752066 C43.2116364,4.03636364 43.1505455,3.99559229 43.0894545,3.95482094 C43.0283636,3.93443526 42.9469091,3.91404959 42.8043636,3.91404959 L42.6821818,3.91404959 L42.6821818,5.27988981 L42.1730909,5.27988981 L42.1730909,5.34104683 Z" id="Shape" fill="#ED1D24"></path>
                    <polygon id="Shape" fill="#ED1D24" fill-rule="nonzero" points="44.9018182 5.34104683 44.9018182 2.05895317 46.9178182 2.05895317 46.9178182 2.60936639 45.4516364 2.60936639 45.4516364 3.34325069 46.816 3.34325069 46.816 3.89366391 45.4516364 3.89366391 45.4516364 4.79063361 46.9585455 4.79063361 46.9585455 5.34104683"></polygon>
                    <polygon id="Shape" fill="#ED1D24" fill-rule="nonzero" points="5.152 37.4280992 1.89381818 37.4280992 1.89381818 36.877686 4.07272727 35.7768595 1.89381818 35.7768595 1.89381818 35.2672176 5.152 35.2672176 5.152 35.8176309 3.03418182 36.9184573 5.152 36.9184573"></polygon>
                    <path d="M3.86909091,33.2490358 L2.64727273,33.615978 L3.86909091,33.9829201 L3.86909091,33.2490358 Z M5.152,32.2501377 L5.152,32.8413223 L4.41890909,33.0655647 L4.41890909,34.1663912 L5.152,34.3906336 L5.152,34.9818182 L1.87345455,33.9217631 L1.87345455,33.3305785 L5.152,32.2501377 Z" id="Shape" fill="#ED1D24"></path>
                    <polygon id="Shape" fill="#ED1D24" fill-rule="nonzero" points="5.152 31.5977961 2.44363636 31.5977961 2.44363636 32.3928375 1.89381818 32.3928375 1.89381818 30.2319559 2.44363636 30.2319559 2.44363636 31.0473829 5.152 31.0473829"></polygon>
                    <rect id="Rectangle-path" fill="#ED1D24" fill-rule="nonzero" x="1.89381818" y="29.3553719" width="3.27854545" height="1"></rect>
                    <path d="M3.52290909,28.3768595 C3.88945455,28.3768595 4.17454545,28.2953168 4.35781818,28.1526171 C4.54109091,28.0099174 4.64290909,27.8264463 4.64290909,27.6225895 C4.64290909,27.3983471 4.54109091,27.2352617 4.35781818,27.092562 C4.17454545,26.9498623 3.88945455,26.8887052 3.50254545,26.8887052 C3.11563636,26.8887052 2.85090909,26.9498623 2.66763636,27.092562 C2.48436364,27.2352617 2.40290909,27.4187328 2.40290909,27.6429752 C2.40290909,27.8672176 2.48436364,28.0506887 2.66763636,28.1933884 C2.85090909,28.3157025 3.136,28.3768595 3.52290909,28.3768595 M3.54327273,28.9476584 C3.15636364,28.9476584 2.83054545,28.8865014 2.58618182,28.7641873 C2.34181818,28.6418733 2.13818182,28.4991736 2.016,28.3157025 C1.89381818,28.1322314 1.83272727,27.907989 1.83272727,27.6225895 C1.83272727,27.2352617 1.97527273,26.9090909 2.28072727,26.6644628 C2.56581818,26.4198347 2.99345455,26.2975207 3.52290909,26.2975207 C4.07272727,26.2975207 4.50036364,26.4198347 4.80581818,26.6848485 C5.07054545,26.9090909 5.21309091,27.214876 5.21309091,27.6022039 C5.21309091,27.9895317 5.07054545,28.2953168 4.80581818,28.5399449 C4.50036364,28.8253444 4.07272727,28.9476584 3.54327273,28.9476584" id="Shape" fill="#ED1D24"></path>
                    <polygon id="Shape" fill="#ED1D24" fill-rule="nonzero" points="5.152 25.8694215 1.89381818 25.8694215 1.89381818 25.3393939 4.07272727 24.2181818 1.89381818 24.2181818 1.89381818 23.7085399 5.152 23.7085399 5.152 24.2589532 3.03418182 25.3597796 5.152 25.3597796"></polygon>
                    <path d="M3.86909091,21.7107438 L2.64727273,22.077686 L3.86909091,22.4446281 L3.86909091,21.7107438 Z M5.152,20.6914601 L5.152,21.2826446 L4.41890909,21.5068871 L4.41890909,22.6077135 L5.152,22.8319559 L5.152,23.4231405 L1.87345455,22.3630854 L1.87345455,21.7719008 L5.152,20.6914601 Z" id="Shape" fill="#ED1D24"></path>
                    <polygon id="Shape" fill="#ED1D24" fill-rule="nonzero" points="5.152 20.4060606 1.91418182 20.4060606 1.91418182 19.8556474 4.60218182 19.8556474 4.60218182 18.4898072 5.152 18.4898072"></polygon>
                    <path d="M51.7032727,15.0853994 L51.4996364,15.615427 C51.1330909,15.5338843 50.8683636,15.3911846 50.6850909,15.2077135 C50.5221818,15.0242424 50.4203636,14.7796143 50.4203636,14.4942149 C50.4203636,14.1476584 50.5629091,13.862259 50.8276364,13.6380165 C51.1330909,13.3933884 51.5607273,13.2506887 52.0901818,13.2506887 C52.64,13.2506887 53.088,13.3730028 53.3934545,13.6380165 C53.6581818,13.862259 53.8007273,14.1476584 53.8007273,14.5349862 C53.8007273,14.8407713 53.6989091,15.0853994 53.4952727,15.2892562 C53.3527273,15.4319559 53.1287273,15.5338843 52.8436364,15.615427 L52.6807273,15.0650138 C52.864,15.0242424 52.9861818,14.9630854 53.088,14.861157 C53.1898182,14.7592287 53.2305455,14.6369146 53.2305455,14.4942149 C53.2305455,14.2903581 53.1490909,14.1272727 52.9658182,14.0049587 C52.8029091,13.8826446 52.5178182,13.8214876 52.1105455,13.8214876 C51.7032727,13.8214876 51.4181818,13.8826446 51.2349091,14.0049587 C51.0516364,14.1272727 50.9701818,14.2903581 50.9701818,14.4942149 C50.9701818,14.6369146 51.0312727,14.7592287 51.1330909,14.861157 C51.2756364,14.9630854 51.4589091,15.0446281 51.7032727,15.0853994" id="Shape" fill="#ED1D24" fill-rule="nonzero"></path>
                    <path d="M52.1309091,16.5327824 C51.7643636,16.5327824 51.4792727,16.6143251 51.296,16.7570248 C51.1127273,16.8997245 51.0109091,17.0831956 51.0109091,17.2870523 C51.0109091,17.4909091 51.1127273,17.6743802 51.296,17.8170799 C51.4792727,17.9597796 51.7643636,18.0209366 52.1512727,18.0209366 C52.5381818,18.0209366 52.8029091,17.9597796 52.9861818,17.8170799 C53.1694545,17.6743802 53.2509091,17.4909091 53.2509091,17.2666667 C53.2509091,17.0424242 53.1694545,16.8589532 52.9861818,16.7162534 C52.8029091,16.6143251 52.5178182,16.5327824 52.1309091,16.5327824 M52.1105455,15.9823691 C52.4974545,15.9823691 52.8232727,16.0435262 53.0676364,16.1658402 C53.312,16.2881543 53.5156364,16.430854 53.6378182,16.6143251 C53.76,16.7977961 53.8210909,17.0220386 53.8210909,17.307438 C53.8210909,17.6947658 53.6785455,18.0209366 53.3730909,18.2655647 C53.088,18.5101928 52.6603636,18.6325069 52.1309091,18.6325069 C51.5810909,18.6325069 51.1534545,18.5101928 50.848,18.2451791 C50.5832727,18.0209366 50.4407273,17.7151515 50.4407273,17.3278237 C50.4407273,16.9404959 50.5832727,16.6143251 50.848,16.3900826 C51.1534545,16.1046832 51.5810909,15.9823691 52.1105455,15.9823691" id="Shape" fill="#ED1D24"></path>
                    <polygon id="Shape" fill="#ED1D24" fill-rule="nonzero" points="50.5018182 19.0402204 53.76 19.0402204 53.76 19.5906336 51.5810909 20.6914601 53.76 20.6914601 53.76 21.2011019 50.5018182 21.2011019 50.5018182 20.6506887 52.6196364 19.5498623 50.5018182 19.5498623"></polygon>
                    <path d="M51.5607273,21.6292011 L51.6218182,22.1592287 C51.1941818,22.2203857 50.9905455,22.4242424 50.9905455,22.7504132 C50.9905455,22.9134986 51.0312727,23.0561983 51.1127273,23.137741 C51.1941818,23.2396694 51.296,23.2804408 51.4385455,23.2804408 C51.52,23.2804408 51.5810909,23.2600551 51.6218182,23.2396694 C51.6829091,23.1988981 51.7236364,23.1581267 51.744,23.0969697 C51.7847273,23.0358127 51.8254545,22.8727273 51.9069091,22.6077135 C51.968,22.3834711 52.0494545,22.2 52.1309091,22.0980716 C52.2123636,21.9961433 52.3141818,21.8942149 52.4567273,21.8330579 C52.5992727,21.7719008 52.7418182,21.7311295 52.8843636,21.7311295 C53.0676364,21.7311295 53.2305455,21.7719008 53.3730909,21.8534435 C53.5156364,21.9349862 53.6174545,22.0573003 53.6989091,22.2 C53.7803636,22.3426997 53.8007273,22.5261708 53.8007273,22.7300275 C53.8007273,23.0561983 53.7192727,23.3008264 53.536,23.4842975 C53.3730909,23.6677686 53.1287273,23.7493113 52.8029091,23.769697 L52.7825455,23.2192837 C52.9658182,23.1988981 53.088,23.137741 53.1490909,23.0561983 C53.2101818,22.9746556 53.2509091,22.8523416 53.2509091,22.7096419 C53.2509091,22.5669421 53.2101818,22.4446281 53.1694545,22.3630854 C53.1083636,22.2815427 53.0269091,22.2407713 52.9454545,22.2407713 C52.864,22.2407713 52.7825455,22.2815427 52.7214545,22.3426997 C52.6603636,22.4242424 52.5992727,22.5873278 52.5178182,22.8523416 C52.4363636,23.1173554 52.3549091,23.3212121 52.2734545,23.4435262 C52.192,23.5658402 52.0698182,23.6677686 51.9272727,23.7289256 C51.7847273,23.7900826 51.6218182,23.830854 51.4181818,23.830854 C51.1330909,23.830854 50.8887273,23.7493113 50.7054545,23.5658402 C50.5018182,23.3823691 50.4203636,23.1173554 50.4203636,22.7300275 C50.4407273,22.077686 50.8072727,21.7107438 51.5607273,21.6292011" id="Shape" fill="#ED1D24" fill-rule="nonzero"></path>
                    <polygon id="Shape" fill="#ED1D24" fill-rule="nonzero" points="50.5018182 24.2997245 53.76 24.2997245 53.76 26.3179063 53.2101818 26.3179063 53.2101818 24.8501377 52.4974545 24.8501377 52.4974545 26.215978 51.9272727 26.215978 51.9272727 24.8501377 51.0516364 24.8501377 51.0516364 26.3790634 50.5018182 26.3790634"></polygon>
                    <path d="M52.3752727,27.3779614 L52.3752727,27.7856749 C52.3752727,28.030303 52.3956364,28.1933884 52.416,28.2545455 C52.4363636,28.3157025 52.4770909,28.3768595 52.5381818,28.4176309 C52.5992727,28.4584022 52.6807273,28.4787879 52.8029091,28.4787879 C52.9047273,28.4787879 52.9861818,28.4584022 53.0472727,28.4176309 C53.1083636,28.3768595 53.1490909,28.3157025 53.1694545,28.2545455 C53.1898182,28.1933884 53.1898182,28.0506887 53.1898182,27.8060606 L53.1898182,27.3779614 L52.3752727,27.3779614 L52.3752727,27.3779614 Z M50.5018182,26.8275482 L53.76,26.8275482 L53.76,27.9895317 C53.76,28.2749311 53.7396364,28.4991736 53.6785455,28.6214876 C53.6174545,28.7438017 53.5156364,28.84573 53.3730909,28.9272727 C53.2305455,29.0088154 53.0472727,29.0495868 52.8436364,29.0495868 C52.5789091,29.0495868 52.3752727,28.9884298 52.2327273,28.8661157 C52.0698182,28.7438017 51.968,28.5603306 51.9272727,28.3360882 C51.8458182,28.4584022 51.744,28.5603306 51.6625455,28.6214876 C51.5607273,28.7030303 51.3774545,28.8049587 51.1330909,28.9272727 L50.5018182,29.2534435 L50.5018182,28.6011019 L51.2145455,28.1933884 C51.4792727,28.0506887 51.6421818,27.9487603 51.7032727,27.907989 C51.7643636,27.846832 51.8050909,27.8060606 51.8458182,27.7449036 C51.8661818,27.6837466 51.8865455,27.6022039 51.8865455,27.4595041 L51.8865455,27.3371901 L50.5018182,27.3371901 L50.5018182,26.8275482 Z" id="Shape" fill="#ED1D24"></path>
                    <polygon id="Shape" fill="#ED1D24" fill-rule="nonzero" points="50.5018182 30.2115702 53.76 29.2330579 53.76 29.8242424 51.3367273 30.5173554 53.76 31.169697 53.76 31.7608815 50.5018182 30.8027548"></polygon>
                    <path d="M51.7847273,33.2490358 L53.0065455,32.8820937 L51.7847273,32.5151515 L51.7847273,33.2490358 Z M50.5018182,34.2479339 L50.5018182,33.6567493 L51.2349091,33.4325069 L51.2349091,32.3316804 L50.5018182,32.107438 L50.5018182,31.5162534 L53.7803636,32.5763085 L53.7803636,33.1674931 L50.5018182,34.2479339 Z" id="Shape" fill="#ED1D24"></path>
                    <polygon id="Shape" fill="#ED1D24" fill-rule="nonzero" points="50.5018182 34.9002755 53.2101818 34.9002755 53.2101818 34.1052342 53.76 34.1052342 53.76 36.24573 53.2101818 36.24573 53.2101818 35.4506887 50.5018182 35.4506887"></polygon>
                    <rect id="Rectangle-path" fill="#ED1D24" fill-rule="nonzero" x="50.5018182" y="36.5922865" width="3.27854545" height="1"></rect>
                    <path d="M52.1309091,38.1212121 C51.7643636,38.1212121 51.4792727,38.2027548 51.296,38.3454545 C51.1127273,38.4881543 51.0109091,38.6716253 51.0109091,38.8754821 C51.0109091,39.0997245 51.1127273,39.2628099 51.296,39.4055096 C51.4792727,39.5482094 51.7643636,39.6093664 52.1512727,39.6093664 C52.5381818,39.6093664 52.8029091,39.5482094 52.9861818,39.4055096 C53.1694545,39.2628099 53.2509091,39.0793388 53.2509091,38.8550964 C53.2509091,38.630854 53.1694545,38.4473829 52.9861818,38.3046832 C52.8029091,38.1823691 52.5178182,38.1212121 52.1309091,38.1212121 M52.1105455,37.5504132 C52.4974545,37.5504132 52.8232727,37.6115702 53.0676364,37.7338843 C53.312,37.8561983 53.5156364,37.9988981 53.6378182,38.1823691 C53.76,38.3658402 53.8210909,38.5900826 53.8210909,38.8754821 C53.8210909,39.2628099 53.6785455,39.5889807 53.3730909,39.8336088 C53.088,40.0782369 52.6603636,40.200551 52.1309091,40.200551 C51.5810909,40.200551 51.1534545,40.0782369 50.848,39.8132231 C50.5832727,39.5889807 50.4407273,39.2831956 50.4407273,38.8958678 C50.4407273,38.5085399 50.5832727,38.2027548 50.848,37.9581267 C51.1534545,37.6727273 51.5810909,37.5504132 52.1105455,37.5504132" id="Shape" fill="#ED1D24"></path>
                    <polygon id="Shape" fill="#ED1D24" fill-rule="nonzero" points="50.5018182 40.6286501 53.76 40.6286501 53.76 41.1586777 51.5810909 42.2595041 53.76 42.2595041 53.76 42.769146 50.5018182 42.769146 50.5018182 42.2187328 52.6196364 41.138292 50.5018182 41.138292"></polygon>
                    <polygon id="Shape" fill="#ED1D24" fill-rule="nonzero" points="16.7592727 54.0424242 16.7592727 50.7807163 17.3090909 50.7807163 18.4087273 52.9619835 18.4087273 50.7807163 18.9178182 50.7807163 18.9178182 54.0424242 18.368 54.0424242 17.2683636 51.922314 17.2683636 54.0424242"></polygon>
                    <polygon id="Shape" fill="#ED1D24" fill-rule="nonzero" points="19.488 54.0424242 19.488 50.7807163 21.504 50.7807163 21.504 51.3311295 20.0378182 51.3311295 20.0378182 52.0446281 21.4021818 52.0446281 21.4021818 52.615427 20.0378182 52.615427 20.0378182 53.492011 21.5447273 53.492011 21.5447273 54.0424242"></polygon>
                    <path d="M22.5629091,51.3311295 L22.5629091,52.2688705 L22.8683636,52.2688705 C23.072,52.2688705 23.2145455,52.2484848 23.2756364,52.2280992 C23.3570909,52.2077135 23.4181818,52.1465565 23.4589091,52.0650138 C23.4996364,51.9834711 23.52,51.9019284 23.52,51.8 C23.52,51.6980716 23.4996364,51.5961433 23.4385455,51.5146006 C23.3978182,51.4330579 23.3367273,51.3922865 23.2552727,51.3719008 C23.1738182,51.3515152 23.0312727,51.3311295 22.8072727,51.3311295 L22.5629091,51.3311295 L22.5629091,51.3311295 Z M22.0130909,54.0424242 L22.0130909,50.7603306 L22.8887273,50.7603306 C23.2145455,50.7603306 23.4385455,50.7807163 23.5403636,50.8011019 C23.7032727,50.862259 23.8254545,50.9641873 23.9476364,51.1272727 C24.0494545,51.2903581 24.1105455,51.5146006 24.1105455,51.7592287 C24.1105455,52.0038567 24.0698182,52.1873278 23.968,52.3504132 C23.8865455,52.5134986 23.7643636,52.615427 23.6218182,52.6969697 C23.4792727,52.7581267 23.2552727,52.7988981 22.9294545,52.7988981 L22.5629091,52.7988981 L22.5629091,54.0424242 L22.0130909,54.0424242 Z" id="Shape" fill="#ED1D24"></path>
                    <path d="M25.7396364,52.7581267 L25.3730909,51.5349862 L25.0065455,52.7581267 L25.7396364,52.7581267 Z M26.7374545,54.0424242 L26.1469091,54.0424242 L25.9229091,53.3085399 L24.8232727,53.3085399 L24.5992727,54.0424242 L24.0290909,54.0424242 L25.088,50.7603306 L25.6785455,50.7603306 L26.7374545,54.0424242 Z" id="Shape" fill="#ED1D24"></path>
                    <polygon id="Shape" fill="#ED1D24" fill-rule="nonzero" points="27.0429091 54.0424242 27.0429091 50.8011019 27.5927273 50.8011019 27.5927273 53.492011 28.9570909 53.492011 28.9570909 54.0424242"></polygon>
                    <rect id="Rectangle-path" fill="#ED1D24" fill-rule="nonzero" x="29.344" y="53.430854" width="1" height="1"></rect>
                    <path d="M32.6632727,54.0424242 L32.1338182,54.0424242 L32.1338182,51.677686 C31.9505455,51.9019284 31.7265455,52.0446281 31.4618182,52.1465565 L31.4618182,51.5757576 C31.6043636,51.5146006 31.7469091,51.4126722 31.9098182,51.2699725 C32.0727273,51.1272727 32.1745455,50.9438017 32.2356364,50.7603306 L32.6632727,50.7603306 L32.6632727,54.0424242 L32.6632727,54.0424242 Z" id="Shape" fill="#ED1D24" fill-rule="nonzero"></path>
                    <path d="M34.6181818,51.922314 C34.6181818,51.7184573 34.5774545,51.5553719 34.496,51.4534435 C34.4145455,51.3515152 34.3330909,51.2903581 34.2312727,51.2903581 C34.1294545,51.2903581 34.048,51.3311295 33.9869091,51.4330579 C33.9258182,51.5146006 33.8850909,51.677686 33.8850909,51.8815427 C33.8850909,52.0853994 33.9258182,52.2484848 33.9869091,52.3504132 C34.048,52.4523416 34.1498182,52.4931129 34.2516364,52.4931129 C34.3534545,52.4931129 34.4349091,52.4523416 34.496,52.3504132 C34.5978182,52.2484848 34.6181818,52.1057851 34.6181818,51.922314 M33.4370909,53.2881543 L33.9461818,53.2269972 C33.9665455,53.4716253 34.0683636,53.5939394 34.2312727,53.5939394 C34.3534545,53.5939394 34.4349091,53.5327824 34.5163636,53.4104683 C34.5978182,53.2881543 34.6385455,53.0435262 34.6589091,52.676584 C34.5978182,52.7581267 34.5163636,52.8396694 34.4349091,52.8804408 C34.3534545,52.9212121 34.272,52.9415978 34.1701818,52.9415978 C33.9665455,52.9415978 33.7832727,52.8396694 33.6203636,52.6561983 C33.4574545,52.4523416 33.376,52.2077135 33.376,51.8815427 C33.376,51.5349862 33.4574545,51.2699725 33.6203636,51.0661157 C33.7832727,50.862259 33.9869091,50.7603306 34.2312727,50.7603306 C34.496,50.7603306 34.72,50.8826446 34.9032727,51.1476584 C35.0865455,51.4126722 35.168,51.8203857 35.168,52.4115702 C35.168,53.0027548 35.0661818,53.4512397 34.8829091,53.6958678 C34.6996364,53.9608815 34.4552727,54.0831956 34.1701818,54.0831956 C33.9665455,54.0831956 33.8036364,54.0220386 33.6610909,53.8793388 C33.5592727,53.7774105 33.4778182,53.5735537 33.4370909,53.2881543" id="Shape" fill="#ED1D24"></path>
                    <path d="M36.0436364,53.0639118 C36.0436364,53.2473829 36.0843636,53.369697 36.1658182,53.4716253 C36.2472727,53.5735537 36.3287273,53.6143251 36.4305455,53.6143251 C36.5323636,53.6143251 36.6138182,53.5735537 36.6952727,53.4716253 C36.7767273,53.3900826 36.7970909,53.2473829 36.7970909,53.0639118 C36.7970909,52.9008264 36.7563636,52.7785124 36.6952727,52.6969697 C36.6138182,52.5950413 36.5323636,52.55427 36.4305455,52.55427 C36.3287273,52.55427 36.2269091,52.5950413 36.1658182,52.6969697 C36.0843636,52.7785124 36.0436364,52.9008264 36.0436364,53.0639118 M36.1047273,51.6573003 C36.1047273,51.7796143 36.1454545,51.8815427 36.2065455,51.9426997 C36.2676364,52.0038567 36.3490909,52.0446281 36.4305455,52.0446281 C36.5323636,52.0446281 36.5934545,52.0038567 36.6545455,51.9426997 C36.7156364,51.8815427 36.7563636,51.7796143 36.7563636,51.6573003 C36.7563636,51.5349862 36.736,51.4330579 36.6749091,51.3719008 C36.6138182,51.3107438 36.5323636,51.2699725 36.4509091,51.2699725 C36.3490909,51.2699725 36.2676364,51.3107438 36.2065455,51.3719008 C36.1250909,51.4330579 36.1047273,51.5349862 36.1047273,51.6573003 M35.9825455,52.2892562 C35.8603636,52.2280992 35.7585455,52.1261708 35.6974545,52.0242424 C35.6363636,51.9019284 35.5956364,51.7796143 35.5956364,51.6165289 C35.5956364,51.3515152 35.6770909,51.1476584 35.8196364,51.0049587 C35.9621818,50.862259 36.1658182,50.7807163 36.4101818,50.7807163 C36.6749091,50.7807163 36.8785455,50.862259 37.0210909,51.0253444 C37.1636364,51.1884298 37.2247273,51.3922865 37.2247273,51.6165289 C37.2247273,51.7796143 37.184,51.9019284 37.1229091,52.0242424 C37.0618182,52.1465565 36.96,52.2280992 36.8378182,52.2892562 C37.0007273,52.3707989 37.1025455,52.4727273 37.184,52.5950413 C37.2654545,52.737741 37.3061818,52.9008264 37.3061818,53.0842975 C37.3061818,53.2881543 37.2654545,53.4716253 37.184,53.6143251 C37.1025455,53.7774105 37.0007273,53.8793388 36.8785455,53.9608815 C36.736,54.0424242 36.5934545,54.0831956 36.4305455,54.0831956 C36.1658182,54.0831956 35.9621818,54.0016529 35.7789091,53.8181818 C35.616,53.6347107 35.5141818,53.3900826 35.5141818,53.0842975 C35.5141818,52.8804408 35.5549091,52.7173554 35.6363636,52.5746556 C35.7381818,52.4727273 35.84,52.3504132 35.9825455,52.2892562" id="Shape" fill="#ED1D24"></path>
                    <path d="M39.4036364,53.4716253 L39.4036364,54.0424242 L37.5912727,54.0424242 C37.6116364,53.8181818 37.6727273,53.6143251 37.7745455,53.4104683 C37.8763636,53.2066116 38.0596364,52.9415978 38.3650909,52.6358127 C38.5890909,52.3707989 38.7316364,52.2077135 38.7927273,52.1057851 C38.8741818,51.9630854 38.9149091,51.8407713 38.9149091,51.6980716 C38.9149091,51.5553719 38.8741818,51.4534435 38.8130909,51.3719008 C38.752,51.2903581 38.6705455,51.2699725 38.5687273,51.2699725 C38.3447273,51.2699725 38.2225455,51.4330579 38.2021818,51.7796143 L37.6930909,51.7184573 C37.7338182,51.3922865 37.8152727,51.1476584 37.9781818,50.984573 C38.1410909,50.8214876 38.3447273,50.7603306 38.5890909,50.7603306 C38.8741818,50.7603306 39.0778182,50.862259 39.2407273,51.0253444 C39.3832727,51.2088154 39.4647273,51.4126722 39.4647273,51.6573003 C39.4647273,51.8 39.4443636,51.922314 39.4036364,52.0446281 C39.3629091,52.1669421 39.3018182,52.2892562 39.2407273,52.4319559 C39.1592727,52.55427 39.0370909,52.7173554 38.8538182,52.9212121 C38.6909091,53.1046832 38.5890909,53.2269972 38.528,53.2881543 C38.4872727,53.3493113 38.4465455,53.4104683 38.4261818,53.4716253 L39.4036364,53.4716253 L39.4036364,53.4716253 Z" id="Shape" fill="#ED1D24" fill-rule="nonzero"></path>
                </g>
                <path d="M70.055,11.2525 C70.1850007,11.2525 70.2812497,11.2687498 70.34375,11.30125 C70.4062503,11.3337502 70.4774996,11.3999995 70.5575,11.5 L76.7825,19.6 C76.7674999,19.4699994 76.7575,19.3437506 76.7525,19.22125 C76.7475,19.0987494 76.745,18.9800006 76.745,18.865 L76.745,11.2525 L78.02,11.2525 L78.02,22 L77.285,22 C77.1699994,22 77.0737504,21.9800002 76.99625,21.94 C76.9187496,21.8999998 76.8425004,21.8325005 76.7675,21.7375 L70.55,13.645 C70.56,13.7700006 70.5675,13.8924994 70.5725,14.0125 C70.5775,14.1325006 70.58,14.2424995 70.58,14.3425 L70.58,22 L69.305,22 L69.305,11.2525 L70.055,11.2525 Z M86.015,22 L85.4225,22 C85.2924993,22 85.1875004,21.9800002 85.1075,21.94 C85.0274996,21.8999998 84.9750001,21.8150006 84.95,21.685 L84.8,20.98 C84.599999,21.1600009 84.405001,21.3212493 84.215,21.46375 C84.024999,21.6062507 83.825001,21.7262495 83.615,21.82375 C83.4049989,21.9212505 83.1812512,21.9949998 82.94375,22.045 C82.7062488,22.0950003 82.4425014,22.12 82.1525,22.12 C81.8574985,22.12 81.5812513,22.0787504 81.32375,21.99625 C81.0662487,21.9137496 80.842501,21.7900008 80.6525,21.625 C80.4624991,21.4599992 80.3112506,21.2512513 80.19875,20.99875 C80.0862494,20.7462487 80.03,20.4475017 80.03,20.1025 C80.03,19.8024985 80.1124992,19.5137514 80.2775,19.23625 C80.4425008,18.9587486 80.7087482,18.7125011 81.07625,18.4975 C81.4437518,18.2824989 81.924997,18.1062507 82.52,17.96875 C83.115003,17.8312493 83.8424957,17.7525001 84.7025,17.7325 L84.7025,17.14 C84.7025,16.5499971 84.5762513,16.1037515 84.32375,15.80125 C84.0712487,15.4987485 83.6975025,15.3475 83.2025,15.3475 C82.8774984,15.3475 82.6037511,15.3887496 82.38125,15.47125 C82.1587489,15.5537504 81.9662508,15.6462495 81.80375,15.74875 C81.6412492,15.8512505 81.5012506,15.9437496 81.38375,16.02625 C81.2662494,16.1087504 81.1500006,16.15 81.035,16.15 C80.9449996,16.15 80.8662503,16.1262502 80.79875,16.07875 C80.7312497,16.0312498 80.6775002,15.9725004 80.6375,15.9025 L80.3975,15.475 C80.8175021,15.069998 81.2699976,14.767501 81.755,14.5675 C82.2400024,14.367499 82.777497,14.2675 83.3675,14.2675 C83.7925021,14.2675 84.1699984,14.3374993 84.5,14.4775 C84.8300016,14.6175007 85.1074989,14.8124987 85.3325,15.0625 C85.5575011,15.3125013 85.7274994,15.6149982 85.8425,15.97 C85.9575006,16.3250018 86.015,16.7149979 86.015,17.14 L86.015,22 Z M82.55,21.1825 C82.7850012,21.1825 82.999999,21.1587502 83.195,21.11125 C83.390001,21.0637498 83.5737491,20.9962504 83.74625,20.90875 C83.9187509,20.8212496 84.0837492,20.7150006 84.24125,20.59 C84.3987508,20.4649994 84.5524992,20.3225008 84.7025,20.1625 L84.7025,18.58 C84.0874969,18.6000001 83.5650021,18.6487496 83.135,18.72625 C82.7049978,18.8037504 82.3550013,18.9049994 82.085,19.03 C81.8149987,19.1550006 81.6187506,19.3024991 81.49625,19.4725 C81.3737494,19.6425009 81.3125,19.832499 81.3125,20.0425 C81.3125,20.242501 81.3449997,20.4149993 81.41,20.56 C81.4750003,20.7050007 81.5624995,20.8237495 81.6725,20.91625 C81.7825006,21.0087505 81.9124992,21.0762498 82.0625,21.11875 C82.2125008,21.1612502 82.3749991,21.1825 82.55,21.1825 Z M90.3425,22.12 C89.742497,22.12 89.2812516,21.9525017 88.95875,21.6175 C88.6362484,21.2824983 88.475,20.8000031 88.475,20.17 L88.475,15.52 L87.56,15.52 C87.4799996,15.52 87.4125003,15.4962502 87.3575,15.44875 C87.3024997,15.4012498 87.275,15.3275005 87.275,15.2275 L87.275,14.695 L88.52,14.5375 L88.8275,12.19 C88.8375001,12.1149996 88.8699997,12.0537502 88.925,12.00625 C88.9800003,11.9587498 89.0499996,11.935 89.135,11.935 L89.81,11.935 L89.81,14.5525 L91.985,14.5525 L91.985,15.52 L89.81,15.52 L89.81,20.08 C89.81,20.4000016 89.8874992,20.6374992 90.0425,20.7925 C90.1975008,20.9475008 90.3974988,21.025 90.6425,21.025 C90.7825007,21.025 90.9037495,21.0062502 91.00625,20.96875 C91.1087505,20.9312498 91.1974996,20.8900002 91.2725,20.845 C91.3475004,20.7999998 91.4112497,20.7587502 91.46375,20.72125 C91.5162503,20.6837498 91.5624998,20.665 91.6025,20.665 C91.6725004,20.665 91.7349997,20.7074996 91.79,20.7925 L92.18,21.43 C91.9499989,21.6450011 91.6725016,21.8137494 91.3475,21.93625 C91.0224984,22.0587506 90.6875017,22.12 90.3425,22.12 Z M95.12,14.4025 L95.12,22 L93.785,22 L93.785,14.4025 L95.12,14.4025 Z M95.42,12.0175 C95.42,12.1475006 95.3937503,12.2687494 95.34125,12.38125 C95.2887497,12.4937506 95.2187504,12.5937496 95.13125,12.68125 C95.0437496,12.7687504 94.9425006,12.8374998 94.8275,12.8875 C94.7124994,12.9375002 94.5900006,12.9625 94.46,12.9625 C94.3299994,12.9625 94.2087506,12.9375002 94.09625,12.8875 C93.9837494,12.8374998 93.8837504,12.7687504 93.79625,12.68125 C93.7087496,12.5937496 93.6400002,12.4937506 93.59,12.38125 C93.5399997,12.2687494 93.515,12.1475006 93.515,12.0175 C93.515,11.8874993 93.5399997,11.7637506 93.59,11.64625 C93.6400002,11.5287494 93.7087496,11.4262504 93.79625,11.33875 C93.8837504,11.2512496 93.9837494,11.1825002 94.09625,11.1325 C94.2087506,11.0824998 94.3299994,11.0575 94.46,11.0575 C94.5900006,11.0575 94.7124994,11.0824998 94.8275,11.1325 C94.9425006,11.1825002 95.0437496,11.2512496 95.13125,11.33875 C95.2187504,11.4262504 95.2887497,11.5287494 95.34125,11.64625 C95.3937503,11.7637506 95.42,11.8874993 95.42,12.0175 Z M100.55,14.2825 C101.105003,14.2825 101.606248,14.3749991 102.05375,14.56 C102.501252,14.7450009 102.881248,15.0074983 103.19375,15.3475 C103.506252,15.6875017 103.746249,16.0987476 103.91375,16.58125 C104.081251,17.0637524 104.165,17.602497 104.165,18.1975 C104.165,18.797503 104.081251,19.3374976 103.91375,19.8175 C103.746249,20.2975024 103.506252,20.7074983 103.19375,21.0475 C102.881248,21.3875017 102.501252,21.6487491 102.05375,21.83125 C101.606248,22.0137509 101.105003,22.105 100.55,22.105 C99.9949972,22.105 99.4937522,22.0137509 99.04625,21.83125 C98.5987478,21.6487491 98.2175016,21.3875017 97.9025,21.0475 C97.5874984,20.7074983 97.3450008,20.2975024 97.175,19.8175 C97.0049992,19.3374976 96.92,18.797503 96.92,18.1975 C96.92,17.602497 97.0049992,17.0637524 97.175,16.58125 C97.3450008,16.0987476 97.5874984,15.6875017 97.9025,15.3475 C98.2175016,15.0074983 98.5987478,14.7450009 99.04625,14.56 C99.4937522,14.3749991 99.9949972,14.2825 100.55,14.2825 Z M100.55,21.0625 C101.300004,21.0625 101.859998,20.8112525 102.23,20.30875 C102.600002,19.8062475 102.785,19.1050045 102.785,18.205 C102.785,17.2999955 102.600002,16.5950025 102.23,16.09 C101.859998,15.5849975 101.300004,15.3325 100.55,15.3325 C100.169998,15.3325 99.8400014,15.3974994 99.56,15.5275 C99.2799986,15.6575006 99.0462509,15.8449988 98.85875,16.09 C98.6712491,16.3350012 98.5312505,16.6362482 98.43875,16.99375 C98.3462495,17.3512518 98.3,17.7549978 98.3,18.205 C98.3,18.6550022 98.3462495,19.0574982 98.43875,19.4125 C98.5312505,19.7675018 98.6712491,20.0662488 98.85875,20.30875 C99.0462509,20.5512512 99.2799986,20.7374994 99.56,20.8675 C99.8400014,20.9975006 100.169998,21.0625 100.55,21.0625 Z M105.815,22 L105.815,14.4025 L106.61,14.4025 C106.800001,14.4025 106.92,14.4949991 106.97,14.68 L107.075,15.505 C107.405002,15.1399982 107.773748,14.8450011 108.18125,14.62 C108.588752,14.3949989 109.059997,14.2825 109.595,14.2825 C110.010002,14.2825 110.376248,14.3512493 110.69375,14.48875 C111.011252,14.6262507 111.276249,14.8212487 111.48875,15.07375 C111.701251,15.3262513 111.862499,15.6299982 111.9725,15.985 C112.082501,16.3400018 112.1375,16.7324979 112.1375,17.1625 L112.1375,22 L110.8025,22 L110.8025,17.1625 C110.8025,16.5874971 110.671251,16.1412516 110.40875,15.82375 C110.146249,15.5062484 109.745003,15.3475 109.205,15.3475 C108.809998,15.3475 108.441252,15.442499 108.09875,15.6325 C107.756248,15.822501 107.440001,16.0799984 107.15,16.405 L107.15,22 L105.815,22 Z M119.735,22 L119.1425,22 C119.012499,22 118.9075,21.9800002 118.8275,21.94 C118.7475,21.8999998 118.695,21.8150006 118.67,21.685 L118.52,20.98 C118.319999,21.1600009 118.125001,21.3212493 117.935,21.46375 C117.744999,21.6062507 117.545001,21.7262495 117.335,21.82375 C117.124999,21.9212505 116.901251,21.9949998 116.66375,22.045 C116.426249,22.0950003 116.162501,22.12 115.8725,22.12 C115.577499,22.12 115.301251,22.0787504 115.04375,21.99625 C114.786249,21.9137496 114.562501,21.7900008 114.3725,21.625 C114.182499,21.4599992 114.031251,21.2512513 113.91875,20.99875 C113.806249,20.7462487 113.75,20.4475017 113.75,20.1025 C113.75,19.8024985 113.832499,19.5137514 113.9975,19.23625 C114.162501,18.9587486 114.428748,18.7125011 114.79625,18.4975 C115.163752,18.2824989 115.644997,18.1062507 116.24,17.96875 C116.835003,17.8312493 117.562496,17.7525001 118.4225,17.7325 L118.4225,17.14 C118.4225,16.5499971 118.296251,16.1037515 118.04375,15.80125 C117.791249,15.4987485 117.417502,15.3475 116.9225,15.3475 C116.597498,15.3475 116.323751,15.3887496 116.10125,15.47125 C115.878749,15.5537504 115.686251,15.6462495 115.52375,15.74875 C115.361249,15.8512505 115.221251,15.9437496 115.10375,16.02625 C114.986249,16.1087504 114.870001,16.15 114.755,16.15 C114.665,16.15 114.58625,16.1262502 114.51875,16.07875 C114.45125,16.0312498 114.3975,15.9725004 114.3575,15.9025 L114.1175,15.475 C114.537502,15.069998 114.989998,14.767501 115.475,14.5675 C115.960002,14.367499 116.497497,14.2675 117.0875,14.2675 C117.512502,14.2675 117.889998,14.3374993 118.22,14.4775 C118.550002,14.6175007 118.827499,14.8124987 119.0525,15.0625 C119.277501,15.3125013 119.447499,15.6149982 119.5625,15.97 C119.677501,16.3250018 119.735,16.7149979 119.735,17.14 L119.735,22 Z M116.27,21.1825 C116.505001,21.1825 116.719999,21.1587502 116.915,21.11125 C117.110001,21.0637498 117.293749,20.9962504 117.46625,20.90875 C117.638751,20.8212496 117.803749,20.7150006 117.96125,20.59 C118.118751,20.4649994 118.272499,20.3225008 118.4225,20.1625 L118.4225,18.58 C117.807497,18.6000001 117.285002,18.6487496 116.855,18.72625 C116.424998,18.8037504 116.075001,18.9049994 115.805,19.03 C115.534999,19.1550006 115.338751,19.3024991 115.21625,19.4725 C115.093749,19.6425009 115.0325,19.832499 115.0325,20.0425 C115.0325,20.242501 115.065,20.4149993 115.13,20.56 C115.195,20.7050007 115.282499,20.8237495 115.3925,20.91625 C115.502501,21.0087505 115.632499,21.0762498 115.7825,21.11875 C115.932501,21.1612502 116.094999,21.1825 116.27,21.1825 Z M123.245,10.9525 L123.245,22 L121.91,22 L121.91,10.9525 L123.245,10.9525 Z M136.025,11.2525 L136.025,12.475 L132.5525,12.475 L132.5525,22 L131.0975,22 L131.0975,12.475 L127.61,12.475 L127.61,11.2525 L136.025,11.2525 Z M136.145,22 L136.145,14.4025 L136.91,14.4025 C137.055001,14.4025 137.155,14.4299997 137.21,14.485 C137.265,14.5400003 137.3025,14.6349993 137.3225,14.77 L137.4125,15.955 C137.672501,15.4249973 137.993748,15.0112515 138.37625,14.71375 C138.758752,14.4162485 139.207497,14.2675 139.7225,14.2675 C139.932501,14.2675 140.122499,14.2912498 140.2925,14.33875 C140.462501,14.3862502 140.619999,14.4524996 140.765,14.5375 L140.5925,15.535 C140.5575,15.6600006 140.480001,15.7225 140.36,15.7225 C140.29,15.7225 140.182501,15.6987502 140.0375,15.65125 C139.892499,15.6037498 139.690001,15.58 139.43,15.58 C138.964998,15.58 138.576252,15.7149986 138.26375,15.985 C137.951248,16.2550014 137.690001,16.6474974 137.48,17.1625 L137.48,22 L136.145,22 Z M143.345,14.4025 L143.345,19.2475 C143.345,19.8225029 143.477499,20.2674984 143.7425,20.5825 C144.007501,20.8975016 144.407497,21.055 144.9425,21.055 C145.332502,21.055 145.699998,20.9625009 146.045,20.7775 C146.390002,20.5924991 146.707499,20.3350017 146.9975,20.005 L146.9975,14.4025 L148.3325,14.4025 L148.3325,22 L147.5375,22 C147.347499,22 147.2275,21.9075009 147.1775,21.7225 L147.0725,20.905 C146.742498,21.2700018 146.372502,21.5637489 145.9625,21.78625 C145.552498,22.0087511 145.082503,22.12 144.5525,22.12 C144.137498,22.12 143.771252,22.0512507 143.45375,21.91375 C143.136248,21.7762493 142.870001,21.5825012 142.655,21.3325 C142.439999,21.0824987 142.278751,20.7800018 142.17125,20.425 C142.063749,20.0699982 142.01,19.6775021 142.01,19.2475 L142.01,14.4025 L143.345,14.4025 Z M154.88,15.655 C154.82,15.7650005 154.727501,15.82 154.6025,15.82 C154.5275,15.82 154.4425,15.7925003 154.3475,15.7375 C154.2525,15.6824997 154.136251,15.6212503 153.99875,15.55375 C153.861249,15.4862497 153.697501,15.4237503 153.5075,15.36625 C153.317499,15.3087497 153.092501,15.28 152.8325,15.28 C152.607499,15.28 152.405001,15.3087497 152.225,15.36625 C152.044999,15.4237503 151.891251,15.5024995 151.76375,15.6025 C151.636249,15.7025005 151.53875,15.8187493 151.47125,15.95125 C151.40375,16.0837507 151.37,16.2274992 151.37,16.3825 C151.37,16.577501 151.426249,16.7399993 151.53875,16.87 C151.651251,17.0000006 151.799999,17.1124995 151.985,17.2075 C152.170001,17.3025005 152.379999,17.3862496 152.615,17.45875 C152.850001,17.5312504 153.091249,17.6087496 153.33875,17.69125 C153.586251,17.7737504 153.827499,17.8649995 154.0625,17.965 C154.297501,18.0650005 154.507499,18.1899992 154.6925,18.34 C154.877501,18.4900008 155.026249,18.6737489 155.13875,18.89125 C155.251251,19.1087511 155.3075,19.3699985 155.3075,19.675 C155.3075,20.0250018 155.245001,20.3487485 155.12,20.64625 C154.994999,20.9437515 154.810001,21.2012489 154.565,21.41875 C154.319999,21.6362511 154.020002,21.8074994 153.665,21.9325 C153.309998,22.0575006 152.900002,22.12 152.435,22.12 C151.904997,22.12 151.425002,22.0337509 150.995,21.86125 C150.564998,21.6887491 150.200002,21.4675013 149.9,21.1975 L150.215,20.6875 C150.255,20.6224997 150.3025,20.5725002 150.3575,20.5375 C150.4125,20.5024998 150.485,20.485 150.575,20.485 C150.665,20.485 150.759999,20.5199996 150.86,20.59 C150.960001,20.6600004 151.081249,20.7374996 151.22375,20.8225 C151.366251,20.9075004 151.538749,20.9849996 151.74125,21.055 C151.943751,21.1250004 152.197498,21.16 152.5025,21.16 C152.762501,21.16 152.989999,21.1262503 153.185,21.05875 C153.380001,20.9912497 153.542499,20.9000006 153.6725,20.785 C153.802501,20.6699994 153.89875,20.5375007 153.96125,20.3875 C154.02375,20.2374992 154.055,20.0775008 154.055,19.9075 C154.055,19.6974989 153.998751,19.5237507 153.88625,19.38625 C153.773749,19.2487493 153.625001,19.1312505 153.44,19.03375 C153.254999,18.9362495 153.043751,18.8512504 152.80625,18.77875 C152.568749,18.7062496 152.326251,18.6300004 152.07875,18.55 C151.831249,18.4699996 151.588751,18.3787505 151.35125,18.27625 C151.113749,18.1737495 150.902501,18.0450008 150.7175,17.89 C150.532499,17.7349992 150.383751,17.5437511 150.27125,17.31625 C150.158749,17.0887489 150.1025,16.8125016 150.1025,16.4875 C150.1025,16.1974985 150.162499,15.9187513 150.2825,15.65125 C150.402501,15.3837487 150.577499,15.148751 150.8075,14.94625 C151.037501,14.743749 151.319998,14.5825006 151.655,14.4625 C151.990002,14.3424994 152.372498,14.2825 152.8025,14.2825 C153.302503,14.2825 153.751248,14.3612492 154.14875,14.51875 C154.546252,14.6762508 154.889999,14.8924986 155.18,15.1675 L154.88,15.655 Z M159.3425,22.12 C158.742497,22.12 158.281252,21.9525017 157.95875,21.6175 C157.636248,21.2824983 157.475,20.8000031 157.475,20.17 L157.475,15.52 L156.56,15.52 C156.48,15.52 156.4125,15.4962502 156.3575,15.44875 C156.3025,15.4012498 156.275,15.3275005 156.275,15.2275 L156.275,14.695 L157.52,14.5375 L157.8275,12.19 C157.8375,12.1149996 157.87,12.0537502 157.925,12.00625 C157.98,11.9587498 158.05,11.935 158.135,11.935 L158.81,11.935 L158.81,14.5525 L160.985,14.5525 L160.985,15.52 L158.81,15.52 L158.81,20.08 C158.81,20.4000016 158.887499,20.6374992 159.0425,20.7925 C159.197501,20.9475008 159.397499,21.025 159.6425,21.025 C159.782501,21.025 159.903749,21.0062502 160.00625,20.96875 C160.108751,20.9312498 160.1975,20.8900002 160.2725,20.845 C160.3475,20.7999998 160.41125,20.7587502 160.46375,20.72125 C160.51625,20.6837498 160.5625,20.665 160.6025,20.665 C160.6725,20.665 160.735,20.7074996 160.79,20.7925 L161.18,21.43 C160.949999,21.6450011 160.672502,21.8137494 160.3475,21.93625 C160.022498,22.0587506 159.687502,22.12 159.3425,22.12 Z M168.725,22 L168.725,15.5425 L167.885,15.445 C167.779999,15.4199999 167.69375,15.3812503 167.62625,15.32875 C167.55875,15.2762497 167.525,15.2000005 167.525,15.1 L167.525,14.5525 L168.725,14.5525 L168.725,13.8175 C168.725,13.3824978 168.786249,12.9962517 168.90875,12.65875 C169.031251,12.3212483 169.206249,12.0362512 169.43375,11.80375 C169.661251,11.5712488 169.934998,11.3950006 170.255,11.275 C170.575002,11.1549994 170.934998,11.095 171.335,11.095 C171.675002,11.095 171.989999,11.1449995 172.28,11.245 L172.25,11.9125 C172.245,12.0125005 172.2025,12.0724999 172.1225,12.0925 C172.0425,12.1125001 171.930001,12.1225 171.785,12.1225 L171.5525,12.1225 C171.322499,12.1225 171.113751,12.1524997 170.92625,12.2125 C170.738749,12.2725003 170.577501,12.3699993 170.4425,12.505 C170.307499,12.6400007 170.20375,12.8174989 170.13125,13.0375 C170.05875,13.2575011 170.0225,13.5299984 170.0225,13.855 L170.0225,14.5525 L172.22,14.5525 L172.22,15.52 L170.0675,15.52 L170.0675,22 L168.725,22 Z M176.555,14.2825 C177.110003,14.2825 177.611248,14.3749991 178.05875,14.56 C178.506252,14.7450009 178.886248,15.0074983 179.19875,15.3475 C179.511252,15.6875017 179.751249,16.0987476 179.91875,16.58125 C180.086251,17.0637524 180.17,17.602497 180.17,18.1975 C180.17,18.797503 180.086251,19.3374976 179.91875,19.8175 C179.751249,20.2975024 179.511252,20.7074983 179.19875,21.0475 C178.886248,21.3875017 178.506252,21.6487491 178.05875,21.83125 C177.611248,22.0137509 177.110003,22.105 176.555,22.105 C175.999997,22.105 175.498752,22.0137509 175.05125,21.83125 C174.603748,21.6487491 174.222502,21.3875017 173.9075,21.0475 C173.592498,20.7074983 173.350001,20.2975024 173.18,19.8175 C173.009999,19.3374976 172.925,18.797503 172.925,18.1975 C172.925,17.602497 173.009999,17.0637524 173.18,16.58125 C173.350001,16.0987476 173.592498,15.6875017 173.9075,15.3475 C174.222502,15.0074983 174.603748,14.7450009 175.05125,14.56 C175.498752,14.3749991 175.999997,14.2825 176.555,14.2825 Z M176.555,21.0625 C177.305004,21.0625 177.864998,20.8112525 178.235,20.30875 C178.605002,19.8062475 178.79,19.1050045 178.79,18.205 C178.79,17.2999955 178.605002,16.5950025 178.235,16.09 C177.864998,15.5849975 177.305004,15.3325 176.555,15.3325 C176.174998,15.3325 175.845001,15.3974994 175.565,15.5275 C175.284999,15.6575006 175.051251,15.8449988 174.86375,16.09 C174.676249,16.3350012 174.53625,16.6362482 174.44375,16.99375 C174.35125,17.3512518 174.305,17.7549978 174.305,18.205 C174.305,18.6550022 174.35125,19.0574982 174.44375,19.4125 C174.53625,19.7675018 174.676249,20.0662488 174.86375,20.30875 C175.051251,20.5512512 175.284999,20.7374994 175.565,20.8675 C175.845001,20.9975006 176.174998,21.0625 176.555,21.0625 Z M181.82,22 L181.82,14.4025 L182.585,14.4025 C182.730001,14.4025 182.83,14.4299997 182.885,14.485 C182.94,14.5400003 182.9775,14.6349993 182.9975,14.77 L183.0875,15.955 C183.347501,15.4249973 183.668748,15.0112515 184.05125,14.71375 C184.433752,14.4162485 184.882497,14.2675 185.3975,14.2675 C185.607501,14.2675 185.797499,14.2912498 185.9675,14.33875 C186.137501,14.3862502 186.294999,14.4524996 186.44,14.5375 L186.2675,15.535 C186.2325,15.6600006 186.155001,15.7225 186.035,15.7225 C185.965,15.7225 185.857501,15.6987502 185.7125,15.65125 C185.567499,15.6037498 185.365001,15.58 185.105,15.58 C184.639998,15.58 184.251252,15.7149986 183.93875,15.985 C183.626248,16.2550014 183.365001,16.6474974 183.155,17.1625 L183.155,22 L181.82,22 Z M70.055,29.2525 C70.1850007,29.2525 70.2812497,29.2687498 70.34375,29.30125 C70.4062503,29.3337502 70.4774996,29.3999995 70.5575,29.5 L76.7825,37.6 C76.7674999,37.4699993 76.7575,37.3437506 76.7525,37.22125 C76.7475,37.0987494 76.745,36.9800006 76.745,36.865 L76.745,29.2525 L78.02,29.2525 L78.02,40 L77.285,40 C77.1699994,40 77.0737504,39.9800002 76.99625,39.94 C76.9187496,39.8999998 76.8425004,39.8325005 76.7675,39.7375 L70.55,31.645 C70.56,31.7700006 70.5675,31.8924994 70.5725,32.0125 C70.5775,32.1325006 70.58,32.2424995 70.58,32.3425 L70.58,40 L69.305,40 L69.305,29.2525 L70.055,29.2525 Z M86.015,40 L85.4225,40 C85.2924993,40 85.1875004,39.9800002 85.1075,39.94 C85.0274996,39.8999998 84.9750001,39.8150007 84.95,39.685 L84.8,38.98 C84.599999,39.1600009 84.405001,39.3212493 84.215,39.46375 C84.024999,39.6062507 83.825001,39.7262495 83.615,39.82375 C83.4049989,39.9212505 83.1812512,39.9949997 82.94375,40.045 C82.7062488,40.0950002 82.4425014,40.12 82.1525,40.12 C81.8574985,40.12 81.5812513,40.0787504 81.32375,39.99625 C81.0662487,39.9137496 80.842501,39.7900008 80.6525,39.625 C80.4624991,39.4599992 80.3112506,39.2512513 80.19875,38.99875 C80.0862494,38.7462487 80.03,38.4475017 80.03,38.1025 C80.03,37.8024985 80.1124992,37.5137514 80.2775,37.23625 C80.4425008,36.9587486 80.7087482,36.7125011 81.07625,36.4975 C81.4437518,36.2824989 81.924997,36.1062507 82.52,35.96875 C83.115003,35.8312493 83.8424957,35.7525001 84.7025,35.7325 L84.7025,35.14 C84.7025,34.5499971 84.5762513,34.1037515 84.32375,33.80125 C84.0712487,33.4987485 83.6975025,33.3475 83.2025,33.3475 C82.8774984,33.3475 82.6037511,33.3887496 82.38125,33.47125 C82.1587489,33.5537504 81.9662508,33.6462495 81.80375,33.74875 C81.6412492,33.8512505 81.5012506,33.9437496 81.38375,34.02625 C81.2662494,34.1087504 81.1500006,34.15 81.035,34.15 C80.9449996,34.15 80.8662503,34.1262502 80.79875,34.07875 C80.7312497,34.0312498 80.6775002,33.9725004 80.6375,33.9025 L80.3975,33.475 C80.8175021,33.069998 81.2699976,32.767501 81.755,32.5675 C82.2400024,32.367499 82.777497,32.2675 83.3675,32.2675 C83.7925021,32.2675 84.1699984,32.3374993 84.5,32.4775 C84.8300016,32.6175007 85.1074989,32.8124988 85.3325,33.0625 C85.5575011,33.3125012 85.7274994,33.6149982 85.8425,33.97 C85.9575006,34.3250018 86.015,34.7149979 86.015,35.14 L86.015,40 Z M82.55,39.1825 C82.7850012,39.1825 82.999999,39.1587502 83.195,39.11125 C83.390001,39.0637498 83.5737491,38.9962504 83.74625,38.90875 C83.9187509,38.8212496 84.0837492,38.7150006 84.24125,38.59 C84.3987508,38.4649994 84.5524992,38.3225008 84.7025,38.1625 L84.7025,36.58 C84.0874969,36.6000001 83.5650021,36.6487496 83.135,36.72625 C82.7049978,36.8037504 82.3550013,36.9049994 82.085,37.03 C81.8149987,37.1550006 81.6187506,37.3024992 81.49625,37.4725 C81.3737494,37.6425009 81.3125,37.832499 81.3125,38.0425 C81.3125,38.242501 81.3449997,38.4149993 81.41,38.56 C81.4750003,38.7050007 81.5624995,38.8237495 81.6725,38.91625 C81.7825006,39.0087505 81.9124992,39.0762498 82.0625,39.11875 C82.2125008,39.1612502 82.3749991,39.1825 82.55,39.1825 Z M90.3425,40.12 C89.742497,40.12 89.2812516,39.9525017 88.95875,39.6175 C88.6362484,39.2824983 88.475,38.8000032 88.475,38.17 L88.475,33.52 L87.56,33.52 C87.4799996,33.52 87.4125003,33.4962502 87.3575,33.44875 C87.3024997,33.4012498 87.275,33.3275005 87.275,33.2275 L87.275,32.695 L88.52,32.5375 L88.8275,30.19 C88.8375001,30.1149996 88.8699997,30.0537502 88.925,30.00625 C88.9800003,29.9587498 89.0499996,29.935 89.135,29.935 L89.81,29.935 L89.81,32.5525 L91.985,32.5525 L91.985,33.52 L89.81,33.52 L89.81,38.08 C89.81,38.4000016 89.8874992,38.6374992 90.0425,38.7925 C90.1975008,38.9475008 90.3974988,39.025 90.6425,39.025 C90.7825007,39.025 90.9037495,39.0062502 91.00625,38.96875 C91.1087505,38.9312498 91.1974996,38.8900002 91.2725,38.845 C91.3475004,38.7999998 91.4112497,38.7587502 91.46375,38.72125 C91.5162503,38.6837498 91.5624998,38.665 91.6025,38.665 C91.6725004,38.665 91.7349997,38.7074996 91.79,38.7925 L92.18,39.43 C91.9499989,39.6450011 91.6725016,39.8137494 91.3475,39.93625 C91.0224984,40.0587506 90.6875017,40.12 90.3425,40.12 Z M94.79,32.4025 L94.79,37.2475 C94.79,37.8225029 94.9224987,38.2674984 95.1875,38.5825 C95.4525013,38.8975016 95.8524973,39.055 96.3875,39.055 C96.777502,39.055 97.1449983,38.9625009 97.49,38.7775 C97.8350017,38.5924991 98.1524986,38.3350016 98.4425,38.005 L98.4425,32.4025 L99.7775,32.4025 L99.7775,40 L98.9825,40 C98.7924991,40 98.6725002,39.9075009 98.6225,39.7225 L98.5175,38.905 C98.1874983,39.2700018 97.8175021,39.5637489 97.4075,39.78625 C96.9974979,40.0087511 96.5275027,40.12 95.9975,40.12 C95.5824979,40.12 95.2162516,40.0512507 94.89875,39.91375 C94.5812484,39.7762493 94.3150011,39.5825012 94.1,39.3325 C93.8849989,39.0824987 93.7237505,38.7800018 93.61625,38.425 C93.5087495,38.0699982 93.455,37.6775022 93.455,37.2475 L93.455,32.4025 L94.79,32.4025 Z M101.975,40 L101.975,32.4025 L102.74,32.4025 C102.885001,32.4025 102.985,32.4299997 103.04,32.485 C103.095,32.5400003 103.1325,32.6349993 103.1525,32.77 L103.2425,33.955 C103.502501,33.4249973 103.823748,33.0112515 104.20625,32.71375 C104.588752,32.4162485 105.037497,32.2675 105.5525,32.2675 C105.762501,32.2675 105.952499,32.2912498 106.1225,32.33875 C106.292501,32.3862502 106.449999,32.4524996 106.595,32.5375 L106.4225,33.535 C106.3875,33.6600006 106.310001,33.7225 106.19,33.7225 C106.12,33.7225 106.012501,33.6987502 105.8675,33.65125 C105.722499,33.6037498 105.520001,33.58 105.26,33.58 C104.794998,33.58 104.406252,33.7149986 104.09375,33.985 C103.781248,34.2550014 103.520001,34.6474974 103.31,35.1625 L103.31,40 L101.975,40 Z M111.0275,32.2825 C111.482502,32.2825 111.902498,32.3587492 112.2875,32.51125 C112.672502,32.6637508 113.004999,32.8837486 113.285,33.17125 C113.565001,33.4587514 113.783749,33.8137479 113.94125,34.23625 C114.098751,34.6587521 114.1775,35.1399973 114.1775,35.68 C114.1775,35.890001 114.155,36.0299997 114.11,36.1 C114.065,36.1700003 113.980001,36.205 113.855,36.205 L108.8,36.205 C108.81,36.6850024 108.874999,37.1024982 108.995,37.4575 C109.115001,37.8125018 109.279999,38.1087488 109.49,38.34625 C109.700001,38.5837512 109.949999,38.7612494 110.24,38.87875 C110.530001,38.9962506 110.854998,39.055 111.215,39.055 C111.550002,39.055 111.838749,39.0162504 112.08125,38.93875 C112.323751,38.8612496 112.532499,38.7775004 112.7075,38.6875 C112.882501,38.5974996 113.028749,38.5137504 113.14625,38.43625 C113.263751,38.3587496 113.365,38.32 113.45,38.32 C113.560001,38.32 113.645,38.3624996 113.705,38.4475 L114.08,38.935 C113.914999,39.135001 113.717501,39.3087493 113.4875,39.45625 C113.257499,39.6037507 113.011251,39.7249995 112.74875,39.82 C112.486249,39.9150005 112.215001,39.9862498 111.935,40.03375 C111.654999,40.0812502 111.377501,40.105 111.1025,40.105 C110.577497,40.105 110.093752,40.0162509 109.65125,39.83875 C109.208748,39.6612491 108.826252,39.4012517 108.50375,39.05875 C108.181248,38.7162483 107.930001,38.2925025 107.75,37.7875 C107.569999,37.2824975 107.48,36.7025033 107.48,36.0475 C107.48,35.5174973 107.561249,35.0225023 107.72375,34.5625 C107.886251,34.1024977 108.119998,33.7037517 108.425,33.36625 C108.730002,33.0287483 109.102498,32.763751 109.5425,32.57125 C109.982502,32.378749 110.477497,32.2825 111.0275,32.2825 Z M111.0575,33.265 C110.412497,33.265 109.905002,33.4512481 109.535,33.82375 C109.164998,34.1962519 108.935,34.7124967 108.845,35.3725 L112.9775,35.3725 C112.9775,35.0624984 112.935,34.7787513 112.85,34.52125 C112.765,34.2637487 112.640001,34.0412509 112.475,33.85375 C112.309999,33.6662491 112.108751,33.5212505 111.87125,33.41875 C111.633749,33.3162495 111.362502,33.265 111.0575,33.265 Z M126.56,37.78 C126.64,37.78 126.7125,37.8124997 126.7775,37.8775 L127.3475,38.5 C126.907498,39.0100026 126.373753,39.4074986 125.74625,39.6925 C125.118747,39.9775014 124.362504,40.12 123.4775,40.12 C122.702496,40.12 122.000003,39.9862513 121.37,39.71875 C120.739997,39.4512487 120.202502,39.0762524 119.7575,38.59375 C119.312498,38.1112476 118.967501,37.5325034 118.7225,36.8575 C118.477499,36.1824966 118.355,35.440004 118.355,34.63 C118.355,33.8199959 118.486249,33.0775034 118.74875,32.4025 C119.011251,31.7274966 119.379998,31.1475024 119.855,30.6625 C120.330002,30.1774976 120.898747,29.8012513 121.56125,29.53375 C122.223753,29.2662487 122.954996,29.1325 123.755,29.1325 C124.545004,29.1325 125.226247,29.2549988 125.79875,29.5 C126.371253,29.7450012 126.879998,30.0774979 127.325,30.4975 L126.8525,31.165 C126.8175,31.2150003 126.7775,31.2562498 126.7325,31.28875 C126.6875,31.3212502 126.6225,31.3375 126.5375,31.3375 C126.4725,31.3375 126.40375,31.3137502 126.33125,31.26625 C126.25875,31.2187498 126.1725,31.1600004 126.0725,31.09 C125.972499,31.0199997 125.855001,30.9450004 125.72,30.865 C125.584999,30.7849996 125.425001,30.7100004 125.24,30.64 C125.054999,30.5699996 124.840001,30.5112502 124.595,30.46375 C124.349999,30.4162498 124.067502,30.3925 123.7475,30.3925 C123.172497,30.3925 122.646252,30.491249 122.16875,30.68875 C121.691248,30.886251 121.280002,31.1674982 120.935,31.5325 C120.589998,31.8975018 120.321251,32.3424974 120.12875,32.8675 C119.936249,33.3925026 119.84,33.9799967 119.84,34.63 C119.84,35.3000033 119.936249,35.8974974 120.12875,36.4225 C120.321251,36.9475026 120.583748,37.3912482 120.91625,37.75375 C121.248752,38.1162518 121.642498,38.392499 122.0975,38.5825 C122.552502,38.772501 123.042497,38.8675 123.5675,38.8675 C123.887502,38.8675 124.174999,38.8487502 124.43,38.81125 C124.685001,38.7737498 124.921249,38.7150004 125.13875,38.635 C125.356251,38.5549996 125.558749,38.4537506 125.74625,38.33125 C125.933751,38.2087494 126.122499,38.0625008 126.3125,37.8925 C126.3975,37.8174996 126.48,37.78 126.56,37.78 Z M132.125,32.2825 C132.680003,32.2825 133.181248,32.3749991 133.62875,32.56 C134.076252,32.7450009 134.456248,33.0074983 134.76875,33.3475 C135.081252,33.6875017 135.321249,34.0987476 135.48875,34.58125 C135.656251,35.0637524 135.74,35.602497 135.74,36.1975 C135.74,36.797503 135.656251,37.3374976 135.48875,37.8175 C135.321249,38.2975024 135.081252,38.7074983 134.76875,39.0475 C134.456248,39.3875017 134.076252,39.6487491 133.62875,39.83125 C133.181248,40.0137509 132.680003,40.105 132.125,40.105 C131.569997,40.105 131.068752,40.0137509 130.62125,39.83125 C130.173748,39.6487491 129.792502,39.3875017 129.4775,39.0475 C129.162498,38.7074983 128.920001,38.2975024 128.75,37.8175 C128.579999,37.3374976 128.495,36.797503 128.495,36.1975 C128.495,35.602497 128.579999,35.0637524 128.75,34.58125 C128.920001,34.0987476 129.162498,33.6875017 129.4775,33.3475 C129.792502,33.0074983 130.173748,32.7450009 130.62125,32.56 C131.068752,32.3749991 131.569997,32.2825 132.125,32.2825 Z M132.125,39.0625 C132.875004,39.0625 133.434998,38.8112525 133.805,38.30875 C134.175002,37.8062475 134.36,37.1050045 134.36,36.205 C134.36,35.2999955 134.175002,34.5950025 133.805,34.09 C133.434998,33.5849975 132.875004,33.3325 132.125,33.3325 C131.744998,33.3325 131.415001,33.3974994 131.135,33.5275 C130.854999,33.6575007 130.621251,33.8449988 130.43375,34.09 C130.246249,34.3350012 130.10625,34.6362482 130.01375,34.99375 C129.92125,35.3512518 129.875,35.7549978 129.875,36.205 C129.875,36.6550023 129.92125,37.0574982 130.01375,37.4125 C130.10625,37.7675018 130.246249,38.0662488 130.43375,38.30875 C130.621251,38.5512512 130.854999,38.7374994 131.135,38.8675 C131.415001,38.9975006 131.744998,39.0625 132.125,39.0625 Z M137.39,40 L137.39,32.4025 L138.185,32.4025 C138.375001,32.4025 138.495,32.4949991 138.545,32.68 L138.65,33.505 C138.980002,33.1399982 139.348748,32.8450011 139.75625,32.62 C140.163752,32.3949989 140.634997,32.2825 141.17,32.2825 C141.585002,32.2825 141.951248,32.3512493 142.26875,32.48875 C142.586252,32.6262507 142.851249,32.8212487 143.06375,33.07375 C143.276251,33.3262513 143.437499,33.6299982 143.5475,33.985 C143.657501,34.3400018 143.7125,34.7324979 143.7125,35.1625 L143.7125,40 L142.3775,40 L142.3775,35.1625 C142.3775,34.5874971 142.246251,34.1412516 141.98375,33.82375 C141.721249,33.5062484 141.320003,33.3475 140.78,33.3475 C140.384998,33.3475 140.016252,33.4424991 139.67375,33.6325 C139.331248,33.8225009 139.015001,34.0799984 138.725,34.405 L138.725,40 L137.39,40 Z M150.08,33.655 C150.02,33.7650005 149.927501,33.82 149.8025,33.82 C149.7275,33.82 149.6425,33.7925003 149.5475,33.7375 C149.4525,33.6824997 149.336251,33.6212503 149.19875,33.55375 C149.061249,33.4862497 148.897501,33.4237503 148.7075,33.36625 C148.517499,33.3087497 148.292501,33.28 148.0325,33.28 C147.807499,33.28 147.605001,33.3087497 147.425,33.36625 C147.244999,33.4237503 147.091251,33.5024995 146.96375,33.6025 C146.836249,33.7025005 146.73875,33.8187493 146.67125,33.95125 C146.60375,34.0837507 146.57,34.2274992 146.57,34.3825 C146.57,34.577501 146.626249,34.7399994 146.73875,34.87 C146.851251,35.0000007 146.999999,35.1124995 147.185,35.2075 C147.370001,35.3025005 147.579999,35.3862496 147.815,35.45875 C148.050001,35.5312504 148.291249,35.6087496 148.53875,35.69125 C148.786251,35.7737504 149.027499,35.8649995 149.2625,35.965 C149.497501,36.0650005 149.707499,36.1899992 149.8925,36.34 C150.077501,36.4900008 150.226249,36.6737489 150.33875,36.89125 C150.451251,37.1087511 150.5075,37.3699985 150.5075,37.675 C150.5075,38.0250018 150.445001,38.3487485 150.32,38.64625 C150.194999,38.9437515 150.010001,39.2012489 149.765,39.41875 C149.519999,39.6362511 149.220002,39.8074994 148.865,39.9325 C148.509998,40.0575006 148.100002,40.12 147.635,40.12 C147.104997,40.12 146.625002,40.0337509 146.195,39.86125 C145.764998,39.6887491 145.400002,39.4675013 145.1,39.1975 L145.415,38.6875 C145.455,38.6224997 145.5025,38.5725002 145.5575,38.5375 C145.6125,38.5024998 145.685,38.485 145.775,38.485 C145.865,38.485 145.96,38.5199997 146.06,38.59 C146.160001,38.6600004 146.281249,38.7374996 146.42375,38.8225 C146.566251,38.9075004 146.738749,38.9849996 146.94125,39.055 C147.143751,39.1250004 147.397498,39.16 147.7025,39.16 C147.962501,39.16 148.189999,39.1262503 148.385,39.05875 C148.580001,38.9912497 148.742499,38.9000006 148.8725,38.785 C149.002501,38.6699994 149.09875,38.5375007 149.16125,38.3875 C149.22375,38.2374992 149.255,38.0775008 149.255,37.9075 C149.255,37.6974989 149.198751,37.5237507 149.08625,37.38625 C148.973749,37.2487493 148.825001,37.1312505 148.64,37.03375 C148.454999,36.9362495 148.243751,36.8512504 148.00625,36.77875 C147.768749,36.7062496 147.526251,36.6300004 147.27875,36.55 C147.031249,36.4699996 146.788751,36.3787505 146.55125,36.27625 C146.313749,36.1737495 146.102501,36.0450008 145.9175,35.89 C145.732499,35.7349992 145.583751,35.5437511 145.47125,35.31625 C145.358749,35.0887489 145.3025,34.8125016 145.3025,34.4875 C145.3025,34.1974985 145.362499,33.9187513 145.4825,33.65125 C145.602501,33.3837487 145.777499,33.148751 146.0075,32.94625 C146.237501,32.743749 146.519998,32.5825006 146.855,32.4625 C147.190002,32.3424994 147.572498,32.2825 148.0025,32.2825 C148.502502,32.2825 148.951248,32.3612492 149.34875,32.51875 C149.746252,32.6762508 150.089999,32.8924986 150.38,33.1675 L150.08,33.655 Z M155.2475,32.2825 C155.702502,32.2825 156.122498,32.3587492 156.5075,32.51125 C156.892502,32.6637508 157.224999,32.8837486 157.505,33.17125 C157.785001,33.4587514 158.003749,33.8137479 158.16125,34.23625 C158.318751,34.6587521 158.3975,35.1399973 158.3975,35.68 C158.3975,35.890001 158.375,36.0299997 158.33,36.1 C158.285,36.1700003 158.200001,36.205 158.075,36.205 L153.02,36.205 C153.03,36.6850024 153.094999,37.1024982 153.215,37.4575 C153.335001,37.8125018 153.499999,38.1087488 153.71,38.34625 C153.920001,38.5837512 154.169999,38.7612494 154.46,38.87875 C154.750001,38.9962506 155.074998,39.055 155.435,39.055 C155.770002,39.055 156.058749,39.0162504 156.30125,38.93875 C156.543751,38.8612496 156.752499,38.7775004 156.9275,38.6875 C157.102501,38.5974996 157.248749,38.5137504 157.36625,38.43625 C157.483751,38.3587496 157.585,38.32 157.67,38.32 C157.780001,38.32 157.865,38.3624996 157.925,38.4475 L158.3,38.935 C158.134999,39.135001 157.937501,39.3087493 157.7075,39.45625 C157.477499,39.6037507 157.231251,39.7249995 156.96875,39.82 C156.706249,39.9150005 156.435001,39.9862498 156.155,40.03375 C155.874999,40.0812502 155.597501,40.105 155.3225,40.105 C154.797497,40.105 154.313752,40.0162509 153.87125,39.83875 C153.428748,39.6612491 153.046252,39.4012517 152.72375,39.05875 C152.401248,38.7162483 152.150001,38.2925025 151.97,37.7875 C151.789999,37.2824975 151.7,36.7025033 151.7,36.0475 C151.7,35.5174973 151.781249,35.0225023 151.94375,34.5625 C152.106251,34.1024977 152.339998,33.7037517 152.645,33.36625 C152.950002,33.0287483 153.322498,32.763751 153.7625,32.57125 C154.202502,32.378749 154.697497,32.2825 155.2475,32.2825 Z M155.2775,33.265 C154.632497,33.265 154.125002,33.4512481 153.755,33.82375 C153.384998,34.1962519 153.155,34.7124967 153.065,35.3725 L157.1975,35.3725 C157.1975,35.0624984 157.155,34.7787513 157.07,34.52125 C156.985,34.2637487 156.860001,34.0412509 156.695,33.85375 C156.529999,33.6662491 156.328751,33.5212505 156.09125,33.41875 C155.853749,33.3162495 155.582502,33.265 155.2775,33.265 Z M160.1,40 L160.1,32.4025 L160.865,32.4025 C161.010001,32.4025 161.11,32.4299997 161.165,32.485 C161.22,32.5400003 161.2575,32.6349993 161.2775,32.77 L161.3675,33.955 C161.627501,33.4249973 161.948748,33.0112515 162.33125,32.71375 C162.713752,32.4162485 163.162497,32.2675 163.6775,32.2675 C163.887501,32.2675 164.077499,32.2912498 164.2475,32.33875 C164.417501,32.3862502 164.574999,32.4524996 164.72,32.5375 L164.5475,33.535 C164.5125,33.6600006 164.435001,33.7225 164.315,33.7225 C164.245,33.7225 164.137501,33.6987502 163.9925,33.65125 C163.847499,33.6037498 163.645001,33.58 163.385,33.58 C162.919998,33.58 162.531252,33.7149986 162.21875,33.985 C161.906248,34.2550014 161.645001,34.6474974 161.435,35.1625 L161.435,40 L160.1,40 Z M165.185,32.4025 L166.28,32.4025 C166.385001,32.4025 166.4725,32.4299997 166.5425,32.485 C166.6125,32.5400003 166.6625,32.6049996 166.6925,32.68 L168.62,37.57 C168.69,37.7500009 168.745,37.9299991 168.785,38.11 C168.825,38.2900009 168.8625,38.4674991 168.8975,38.6425 C168.9375,38.4674991 168.98,38.2900009 169.025,38.11 C169.07,37.9299991 169.1275,37.7500009 169.1975,37.57 L171.1475,32.68 C171.1775,32.5999996 171.22625,32.5337503 171.29375,32.48125 C171.36125,32.4287497 171.445,32.4025 171.545,32.4025 L172.5875,32.4025 L169.49,40 L168.2825,40 L165.185,32.4025 Z M179.405,40 L178.8125,40 C178.682499,40 178.5775,39.9800002 178.4975,39.94 C178.4175,39.8999998 178.365,39.8150007 178.34,39.685 L178.19,38.98 C177.989999,39.1600009 177.795001,39.3212493 177.605,39.46375 C177.414999,39.6062507 177.215001,39.7262495 177.005,39.82375 C176.794999,39.9212505 176.571251,39.9949997 176.33375,40.045 C176.096249,40.0950002 175.832501,40.12 175.5425,40.12 C175.247499,40.12 174.971251,40.0787504 174.71375,39.99625 C174.456249,39.9137496 174.232501,39.7900008 174.0425,39.625 C173.852499,39.4599992 173.701251,39.2512513 173.58875,38.99875 C173.476249,38.7462487 173.42,38.4475017 173.42,38.1025 C173.42,37.8024985 173.502499,37.5137514 173.6675,37.23625 C173.832501,36.9587486 174.098748,36.7125011 174.46625,36.4975 C174.833752,36.2824989 175.314997,36.1062507 175.91,35.96875 C176.505003,35.8312493 177.232496,35.7525001 178.0925,35.7325 L178.0925,35.14 C178.0925,34.5499971 177.966251,34.1037515 177.71375,33.80125 C177.461249,33.4987485 177.087502,33.3475 176.5925,33.3475 C176.267498,33.3475 175.993751,33.3887496 175.77125,33.47125 C175.548749,33.5537504 175.356251,33.6462495 175.19375,33.74875 C175.031249,33.8512505 174.891251,33.9437496 174.77375,34.02625 C174.656249,34.1087504 174.540001,34.15 174.425,34.15 C174.335,34.15 174.25625,34.1262502 174.18875,34.07875 C174.12125,34.0312498 174.0675,33.9725004 174.0275,33.9025 L173.7875,33.475 C174.207502,33.069998 174.659998,32.767501 175.145,32.5675 C175.630002,32.367499 176.167497,32.2675 176.7575,32.2675 C177.182502,32.2675 177.559998,32.3374993 177.89,32.4775 C178.220002,32.6175007 178.497499,32.8124988 178.7225,33.0625 C178.947501,33.3125012 179.117499,33.6149982 179.2325,33.97 C179.347501,34.3250018 179.405,34.7149979 179.405,35.14 L179.405,40 Z M175.94,39.1825 C176.175001,39.1825 176.389999,39.1587502 176.585,39.11125 C176.780001,39.0637498 176.963749,38.9962504 177.13625,38.90875 C177.308751,38.8212496 177.473749,38.7150006 177.63125,38.59 C177.788751,38.4649994 177.942499,38.3225008 178.0925,38.1625 L178.0925,36.58 C177.477497,36.6000001 176.955002,36.6487496 176.525,36.72625 C176.094998,36.8037504 175.745001,36.9049994 175.475,37.03 C175.204999,37.1550006 175.008751,37.3024992 174.88625,37.4725 C174.763749,37.6425009 174.7025,37.832499 174.7025,38.0425 C174.7025,38.242501 174.735,38.4149993 174.8,38.56 C174.865,38.7050007 174.952499,38.8237495 175.0625,38.91625 C175.172501,39.0087505 175.302499,39.0762498 175.4525,39.11875 C175.602501,39.1612502 175.764999,39.1825 175.94,39.1825 Z M183.7325,40.12 C183.132497,40.12 182.671252,39.9525017 182.34875,39.6175 C182.026248,39.2824983 181.865,38.8000032 181.865,38.17 L181.865,33.52 L180.95,33.52 C180.87,33.52 180.8025,33.4962502 180.7475,33.44875 C180.6925,33.4012498 180.665,33.3275005 180.665,33.2275 L180.665,32.695 L181.91,32.5375 L182.2175,30.19 C182.2275,30.1149996 182.26,30.0537502 182.315,30.00625 C182.37,29.9587498 182.44,29.935 182.525,29.935 L183.2,29.935 L183.2,32.5525 L185.375,32.5525 L185.375,33.52 L183.2,33.52 L183.2,38.08 C183.2,38.4000016 183.277499,38.6374992 183.4325,38.7925 C183.587501,38.9475008 183.787499,39.025 184.0325,39.025 C184.172501,39.025 184.293749,39.0062502 184.39625,38.96875 C184.498751,38.9312498 184.5875,38.8900002 184.6625,38.845 C184.7375,38.7999998 184.80125,38.7587502 184.85375,38.72125 C184.90625,38.6837498 184.9525,38.665 184.9925,38.665 C185.0625,38.665 185.125,38.7074996 185.18,38.7925 L185.57,39.43 C185.339999,39.6450011 185.062502,39.8137494 184.7375,39.93625 C184.412498,40.0587506 184.077502,40.12 183.7325,40.12 Z M188.51,32.4025 L188.51,40 L187.175,40 L187.175,32.4025 L188.51,32.4025 Z M188.81,30.0175 C188.81,30.1475006 188.78375,30.2687494 188.73125,30.38125 C188.67875,30.4937506 188.60875,30.5937496 188.52125,30.68125 C188.43375,30.7687504 188.332501,30.8374997 188.2175,30.8875 C188.102499,30.9375002 187.980001,30.9625 187.85,30.9625 C187.719999,30.9625 187.598751,30.9375002 187.48625,30.8875 C187.373749,30.8374997 187.27375,30.7687504 187.18625,30.68125 C187.09875,30.5937496 187.03,30.4937506 186.98,30.38125 C186.93,30.2687494 186.905,30.1475006 186.905,30.0175 C186.905,29.8874993 186.93,29.7637506 186.98,29.64625 C187.03,29.5287494 187.09875,29.4262504 187.18625,29.33875 C187.27375,29.2512496 187.373749,29.1825002 187.48625,29.1325 C187.598751,29.0824997 187.719999,29.0575 187.85,29.0575 C187.980001,29.0575 188.102499,29.0824997 188.2175,29.1325 C188.332501,29.1825002 188.43375,29.2512496 188.52125,29.33875 C188.60875,29.4262504 188.67875,29.5287494 188.73125,29.64625 C188.78375,29.7637506 188.81,29.8874993 188.81,30.0175 Z M193.94,32.2825 C194.495003,32.2825 194.996248,32.3749991 195.44375,32.56 C195.891252,32.7450009 196.271248,33.0074983 196.58375,33.3475 C196.896252,33.6875017 197.136249,34.0987476 197.30375,34.58125 C197.471251,35.0637524 197.555,35.602497 197.555,36.1975 C197.555,36.797503 197.471251,37.3374976 197.30375,37.8175 C197.136249,38.2975024 196.896252,38.7074983 196.58375,39.0475 C196.271248,39.3875017 195.891252,39.6487491 195.44375,39.83125 C194.996248,40.0137509 194.495003,40.105 193.94,40.105 C193.384997,40.105 192.883752,40.0137509 192.43625,39.83125 C191.988748,39.6487491 191.607502,39.3875017 191.2925,39.0475 C190.977498,38.7074983 190.735001,38.2975024 190.565,37.8175 C190.394999,37.3374976 190.31,36.797503 190.31,36.1975 C190.31,35.602497 190.394999,35.0637524 190.565,34.58125 C190.735001,34.0987476 190.977498,33.6875017 191.2925,33.3475 C191.607502,33.0074983 191.988748,32.7450009 192.43625,32.56 C192.883752,32.3749991 193.384997,32.2825 193.94,32.2825 Z M193.94,39.0625 C194.690004,39.0625 195.249998,38.8112525 195.62,38.30875 C195.990002,37.8062475 196.175,37.1050045 196.175,36.205 C196.175,35.2999955 195.990002,34.5950025 195.62,34.09 C195.249998,33.5849975 194.690004,33.3325 193.94,33.3325 C193.559998,33.3325 193.230001,33.3974994 192.95,33.5275 C192.669999,33.6575007 192.436251,33.8449988 192.24875,34.09 C192.061249,34.3350012 191.92125,34.6362482 191.82875,34.99375 C191.73625,35.3512518 191.69,35.7549978 191.69,36.205 C191.69,36.6550023 191.73625,37.0574982 191.82875,37.4125 C191.92125,37.7675018 192.061249,38.0662488 192.24875,38.30875 C192.436251,38.5512512 192.669999,38.7374994 192.95,38.8675 C193.230001,38.9975006 193.559998,39.0625 193.94,39.0625 Z M199.205,40 L199.205,32.4025 L200,32.4025 C200.190001,32.4025 200.31,32.4949991 200.36,32.68 L200.465,33.505 C200.795002,33.1399982 201.163748,32.8450011 201.57125,32.62 C201.978752,32.3949989 202.449997,32.2825 202.985,32.2825 C203.400002,32.2825 203.766248,32.3512493 204.08375,32.48875 C204.401252,32.6262507 204.666249,32.8212487 204.87875,33.07375 C205.091251,33.3262513 205.252499,33.6299982 205.3625,33.985 C205.472501,34.3400018 205.5275,34.7324979 205.5275,35.1625 L205.5275,40 L204.1925,40 L204.1925,35.1625 C204.1925,34.5874971 204.061251,34.1412516 203.79875,33.82375 C203.536249,33.5062484 203.135003,33.3475 202.595,33.3475 C202.199998,33.3475 201.831252,33.4424991 201.48875,33.6325 C201.146248,33.8225009 200.830001,34.0799984 200.54,34.405 L200.54,40 L199.205,40 Z" id="National-Trust-for-N" fill="#ED1D24"></path>
            </g>
        </g>
    </g>
</svg>